SolideMirageMono.ufo
<glyph name="exclam" format="2">
  <advance width="465"/>
  <unicode hex="0021"/>
  <outline>
    <contour>
      <point x="138" y="215" type="line" name="hr01"/>
      <point x="148" y="750" type="line" name="hr02"/>
      <point x="101" y="750" type="line" name="hr03"/>
      <point x="111" y="215" type="line"/>
    </contour>
    <contour>
      <point x="138" y="-50" type="line" name="hr04"/>
      <point x="138" y="169" type="line"/>
      <point x="111" y="169" type="line"/>
      <point x="111" y="-50" type="line"/>
    </contour>
  </outline>
</glyph>
<glyph name="dollar" format="2">
  <advance width="930"/>
  <unicode hex="0024"/>
  <outline>
    <contour>
      <point x="684" y="750" type="line" name="hr01"/>
      <point x="684" y="605" type="line"/>
      <point x="652" y="686"/>
      <point x="594" y="735"/>
      <point x="525" y="757" type="curve" name="hr02"/>
      <point x="525" y="840" type="line"/>
      <point x="498" y="840" type="line"/>
      <point x="498" y="764" type="line"/>
      <point x="478" y="768"/>
      <point x="456" y="770"/>
      <point x="435" y="770" type="curve" smooth="yes"/>
      <point x="432" y="770" type="line"/>
      <point x="432" y="840" type="line"/>
      <point x="405" y="840" type="line"/>
      <point x="405" y="769" type="line"/>
      <point x="285" y="759"/>
      <point x="163" y="691"/>
      <point x="163" y="569" type="curve" smooth="yes"/>
      <point x="163" y="452"/>
      <point x="230" y="386"/>
      <point x="405" y="329" type="curve"/>
      <point x="405" y="15" type="line"/>
      <point x="259" y="44"/>
      <point x="143" y="149"/>
      <point x="143" y="301" type="curve" smooth="yes"/>
      <point x="143" y="333" type="line"/>
      <point x="118" y="333" type="line"/>
      <point x="118" y="0" type="line"/>
      <point x="143" y="0" type="line"/>
      <point x="143" y="178" type="line"/>
      <point x="187" y="79"/>
      <point x="285" y="10"/>
      <point x="405" y="-12" type="curve"/>
      <point x="405" y="-87" type="line"/>
      <point x="432" y="-87" type="line"/>
      <point x="432" y="-16" type="line"/>
      <point x="451" y="-19"/>
      <point x="471" y="-20"/>
      <point x="491" y="-20" type="curve" smooth="yes"/>
      <point x="493" y="-20"/>
      <point x="496" y="-20"/>
      <point x="498" y="-20" type="curve"/>
      <point x="498" y="-87" type="line"/>
      <point x="525" y="-87" type="line"/>
      <point x="525" y="-19" type="line"/>
      <point x="691" y="-11"/>
      <point x="824" y="54"/>
      <point x="824" y="180" type="curve" smooth="yes"/>
      <point x="824" y="284"/>
      <point x="769" y="357"/>
      <point x="525" y="427" type="curve"/>
      <point x="525" y="730" type="line"/>
      <point x="613" y="699"/>
      <point x="684" y="610"/>
      <point x="684" y="469" type="curve" smooth="yes" name="hr03"/>
      <point x="684" y="457" type="line"/>
      <point x="709" y="457" type="line"/>
      <point x="709" y="750" type="line"/>
    </contour>
    <contour>
      <point x="450" y="743" type="curve" smooth="yes" name="hr04"/>
      <point x="466" y="743"/>
      <point x="482" y="741"/>
      <point x="498" y="738" type="curve"/>
      <point x="498" y="435" type="line"/>
      <point x="473" y="441"/>
      <point x="451" y="448"/>
      <point x="432" y="454" type="curve"/>
      <point x="432" y="743" type="line"/>
      <point x="438" y="743"/>
      <point x="444" y="743"/>
    </contour>
    <contour>
      <point x="284" y="610" type="curve" smooth="yes"/>
      <point x="284" y="693"/>
      <point x="324" y="731"/>
      <point x="405" y="741" type="curve"/>
      <point x="405" y="464" type="line"/>
      <point x="306" y="500"/>
      <point x="284" y="535"/>
    </contour>
    <contour>
      <point x="450" y="315" type="curve" smooth="yes"/>
      <point x="467" y="310"/>
      <point x="483" y="305"/>
      <point x="498" y="301" type="curve"/>
      <point x="498" y="7" type="line"/>
      <point x="495" y="7"/>
      <point x="491" y="7"/>
      <point x="488" y="7" type="curve" smooth="yes"/>
      <point x="469" y="7"/>
      <point x="450" y="8"/>
      <point x="432" y="11" type="curve"/>
      <point x="432" y="320" type="line"/>
      <point x="438" y="319"/>
      <point x="444" y="317"/>
    </contour>
    <contour>
      <point x="694" y="132" type="curve" smooth="yes"/>
      <point x="694" y="61"/>
      <point x="649" y="15"/>
      <point x="525" y="8" type="curve"/>
      <point x="525" y="292" type="line"/>
      <point x="664" y="247"/>
      <point x="694" y="215"/>
    </contour>
  </outline>
</glyph>
<glyph name="parenleft" format="2">
  <advance width="465"/>
  <unicode hex="0028"/>
  <outline>
    <contour>
      <point x="444" y="-53" type="line" name="hr00"/>
      <point x="222" y="-53"/>
      <point x="99" y="82"/>
      <point x="99" y="367" type="curve" smooth="yes"/>
      <point x="99" y="662"/>
      <point x="215" y="803"/>
      <point x="444" y="803" type="curve"/>
      <point x="444" y="830" type="line"/>
      <point x="196" y="830"/>
      <point x="70" y="666"/>
      <point x="70" y="368" type="curve" smooth="yes"/>
      <point x="70" y="78"/>
      <point x="199" y="-80"/>
      <point x="444" y="-80" type="curve"/>
    </contour>
  </outline>
</glyph>
<glyph name="one" format="2">
  <advance width="930"/>
  <unicode hex="0031"/>
  <outline>
    <contour>
      <point x="106" y="415" type="curve" name="hr00"/>
      <point x="106" y="388" type="line"/>
      <point x="232" y="388"/>
      <point x="332" y="423"/>
      <point x="401" y="513" type="curve"/>
      <point x="401" y="25" type="line"/>
      <point x="90" y="25" type="line"/>
      <point x="90" y="0" type="line"/>
      <point x="840" y="0" type="line"/>
      <point x="840" y="25" type="line"/>
      <point x="529" y="25" type="line"/>
      <point x="529" y="770" type="line"/>
      <point x="476" y="770" type="line"/>
      <point x="431" y="500"/>
      <point x="294" y="415"/>
    </contour>
  </outline>
</glyph>
<glyph name="two" format="2">
  <advance width="930"/>
  <unicode hex="0032"/>
  <outline>
    <contour>
      <point x="170" y="429" type="line" smooth="yes" name="hr01"/>
      <point x="170" y="644"/>
      <point x="270" y="743"/>
      <point x="423" y="743" type="curve"/>
      <point x="574" y="746"/>
      <point x="646" y="698"/>
      <point x="646" y="576" type="curve" smooth="yes" name="hr02"/>
      <point x="646" y="452"/>
      <point x="537" y="429"/>
      <point x="310" y="293" type="curve" smooth="yes"/>
      <point x="197" y="225"/>
      <point x="126" y="189"/>
      <point x="110" y="0" type="curve"/>
      <point x="139" y="0" type="line"/>
      <point x="143" y="45"/>
      <point x="149" y="81"/>
      <point x="159" y="110" type="curve"/>
      <point x="175" y="151"/>
      <point x="192" y="166"/>
      <point x="218" y="166" type="curve" smooth="yes"/>
      <point x="286" y="166"/>
      <point x="511" y="-20"/>
      <point x="658" y="-20" type="curve" smooth="yes"/>
      <point x="776" y="-20"/>
      <point x="823" y="81"/>
      <point x="823" y="232" type="curve" smooth="yes" name="hr03"/>
      <point x="823" y="347" type="line"/>
      <point x="797" y="347" type="line"/>
      <point x="797" y="228" type="line" smooth="yes"/>
      <point x="797" y="122"/>
      <point x="769" y="80"/>
      <point x="711" y="80" type="curve" smooth="yes"/>
      <point x="617" y="80"/>
      <point x="445" y="230"/>
      <point x="332" y="230" type="curve" smooth="yes"/>
      <point x="285" y="230"/>
      <point x="245" y="219"/>
      <point x="217" y="200" type="curve"/>
      <point x="244" y="225"/>
      <point x="279" y="244"/>
      <point x="323" y="269" type="curve" smooth="yes"/>
      <point x="536" y="388"/>
      <point x="786" y="365"/>
      <point x="786" y="572" type="curve" smooth="yes" name="hr04"/>
      <point x="786" y="709"/>
      <point x="648" y="770"/>
      <point x="439" y="770" type="curve" smooth="yes"/>
      <point x="296" y="770"/>
      <point x="205" y="706"/>
      <point x="165" y="591" type="curve"/>
      <point x="165" y="750" type="line"/>
      <point x="140" y="750" type="line"/>
      <point x="140" y="397" type="line"/>
      <point x="170" y="397" type="line"/>
    </contour>
  </outline>
</glyph>
<glyph name="six" format="2">
  <advance width="930"/>
  <unicode hex="0036"/>
  <outline>
    <contour>
      <point x="116" y="382" type="curve" smooth="yes" name="hr01"/>
      <point x="116" y="58"/>
      <point x="305" y="-20"/>
      <point x="488" y="-20" type="curve" smooth="yes"/>
      <point x="707" y="-20"/>
      <point x="815" y="68"/>
      <point x="815" y="226" type="curve" smooth="yes" name="hr02"/>
      <point x="815" y="384"/>
      <point x="707" y="471"/>
      <point x="488" y="471" type="curve" smooth="yes"/>
      <point x="340" y="471"/>
      <point x="284" y="404"/>
      <point x="274" y="373" type="curve"/>
      <point x="274" y="407" type="line" smooth="yes"/>
      <point x="274" y="642"/>
      <point x="331" y="743"/>
      <point x="491" y="743" type="curve" smooth="yes"/>
      <point x="661" y="743"/>
      <point x="743" y="656"/>
      <point x="743" y="501" type="curve" name="hr03"/>
      <point x="770" y="501" type="line"/>
      <point x="770" y="671"/>
      <point x="673" y="770"/>
      <point x="490" y="770" type="curve" smooth="yes"/>
      <point x="232" y="770"/>
      <point x="116" y="664"/>
    </contour>
    <contour>
      <point x="489" y="7" type="curve" smooth="yes" name="hr04"/>
      <point x="313" y="7"/>
      <point x="274" y="108"/>
      <point x="274" y="242" type="curve" smooth="yes"/>
      <point x="274" y="257" type="line" smooth="yes"/>
      <point x="274" y="405"/>
      <point x="370" y="444"/>
      <point x="490" y="444" type="curve" smooth="yes"/>
      <point x="641" y="444"/>
      <point x="675" y="405"/>
      <point x="675" y="229" type="curve" smooth="yes"/>
      <point x="675" y="56"/>
      <point x="634" y="7"/>
    </contour>
  </outline>
</glyph>
<glyph name="seven" format="2">
  <advance width="930"/>
  <unicode hex="0037"/>
  <outline>
    <contour>
      <point x="635" y="25" type="line" name="hr00"/>
      <point x="493" y="25" type="line"/>
      <point x="493" y="77" type="line" smooth="yes"/>
      <point x="493" y="256"/>
      <point x="548" y="361"/>
      <point x="759" y="629" type="curve" smooth="yes"/>
      <point x="837" y="728" type="line"/>
      <point x="837" y="750" type="line"/>
      <point x="135" y="750" type="line"/>
      <point x="135" y="352" type="line"/>
      <point x="160" y="352" type="line"/>
      <point x="160" y="511" type="line" smooth="yes"/>
      <point x="160" y="597"/>
      <point x="194" y="633"/>
      <point x="288" y="633" type="curve" smooth="yes"/>
      <point x="734" y="633" type="line"/>
      <point x="493" y="375"/>
      <point x="365" y="259"/>
      <point x="365" y="77" type="curve" smooth="yes"/>
      <point x="365" y="25" type="line"/>
      <point x="233" y="25" type="line"/>
      <point x="233" y="0" type="line"/>
      <point x="635" y="0" type="line"/>
    </contour>
  </outline>
</glyph>
<glyph name="eight" format="2">
  <advance width="930"/>
  <unicode hex="0038"/>
  <outline>
    <contour>
      <point x="824" y="180" type="curve" smooth="yes" name="hr01"/>
      <point x="824" y="270"/>
      <point x="782" y="334"/>
      <point x="613" y="397" type="curve"/>
      <point x="710" y="413"/>
      <point x="777" y="454"/>
      <point x="777" y="569" type="curve" smooth="yes" name="hr02"/>
      <point x="777" y="709"/>
      <point x="627" y="770"/>
      <point x="460" y="770" type="curve" smooth="yes"/>
      <point x="302" y="770"/>
      <point x="128" y="701"/>
      <point x="128" y="569" type="curve" smooth="yes"/>
      <point x="128" y="476"/>
      <point x="176" y="417"/>
      <point x="293" y="367" type="curve"/>
      <point x="193" y="349"/>
      <point x="119" y="300"/>
      <point x="119" y="195" type="curve" smooth="yes" name="hr03"/>
      <point x="119" y="52"/>
      <point x="266" y="-20"/>
      <point x="472" y="-20" type="curve" smooth="yes"/>
      <point x="663" y="-20"/>
      <point x="824" y="46"/>
    </contour>
    <contour>
      <point x="494" y="435" type="curve" smooth="yes"/>
      <point x="294" y="491"/>
      <point x="254" y="515"/>
      <point x="254" y="610" type="curve" smooth="yes" name="hr05"/>
      <point x="254" y="707"/>
      <point x="327" y="743"/>
      <point x="475" y="743" type="curve" smooth="yes"/>
      <point x="617" y="743"/>
      <point x="750" y="678"/>
      <point x="750" y="569" type="curve" smooth="yes"/>
      <point x="750" y="465"/>
      <point x="699" y="429"/>
      <point x="571" y="412" type="curve"/>
      <point x="547" y="419"/>
      <point x="522" y="427"/>
    </contour>
    <contour>
      <point x="147" y="199" type="curve" smooth="yes"/>
      <point x="147" y="301"/>
      <point x="227" y="335"/>
      <point x="334" y="351" type="curve"/>
      <point x="362" y="341"/>
      <point x="392" y="331"/>
      <point x="426" y="321" type="curve" smooth="yes"/>
      <point x="649" y="256"/>
      <point x="694" y="231"/>
      <point x="694" y="132" type="curve" smooth="yes"/>
      <point x="694" y="54"/>
      <point x="635" y="7"/>
      <point x="468" y="7" type="curve" smooth="yes"/>
      <point x="287" y="7"/>
      <point x="147" y="62"/>
    </contour>
  </outline>
</glyph>
<glyph name="A" format="2">
  <advance width="930"/>
  <unicode hex="0041"/>
  <outline>
    <contour>
      <point x="210" y="725" type="line" name="hr01"/>
      <point x="383" y="725" type="line"/>
      <point x="130" y="25" type="line" name="hr02"/>
      <point x="60" y="25" type="line"/>
      <point x="60" y="0" type="line"/>
      <point x="306" y="0" type="line"/>
      <point x="306" y="25" type="line"/>
      <point x="161" y="25" type="line"/>
      <point x="237" y="235" type="line"/>
      <point x="592" y="235" type="line"/>
      <point x="669" y="25" type="line"/>
      <point x="528" y="25" type="line"/>
      <point x="528" y="0" type="line"/>
      <point x="870" y="0" type="line"/>
      <point x="870" y="25" type="line"/>
      <point x="796" y="25" type="line"/>
      <point x="532" y="750" type="line"/>
      <point x="210" y="750" type="line"/>
    </contour>
    <contour>
      <point x="247" y="262" type="line"/>
      <point x="414" y="725" type="line"/>
      <point x="583" y="262" type="line"/>
    </contour>
  </outline>
</glyph>
<glyph name="B" format="2">
  <advance width="930"/>
  <unicode hex="0042"/>
  <outline>
    <contour>
      <point x="90" y="725" type="line" name="hr01"/>
      <point x="194" y="725" type="line"/>
      <point x="194" y="25" type="line" name="hr02"/>
      <point x="90" y="25" type="line"/>
      <point x="90" y="0" type="line" name="hr03"/>
      <point x="573" y="0" type="line" smooth="yes"/>
      <point x="715" y="0"/>
      <point x="840" y="63"/>
      <point x="840" y="198" type="curve" smooth="yes"/>
      <point x="840" y="317"/>
      <point x="736" y="380"/>
      <point x="620" y="395" type="curve"/>
      <point x="711" y="424"/>
      <point x="780" y="479"/>
      <point x="780" y="562" type="curve" smooth="yes" name="hr04"/>
      <point x="780" y="691"/>
      <point x="655" y="750"/>
      <point x="513" y="750" type="curve" smooth="yes"/>
      <point x="90" y="750" type="line"/>
    </contour>
    <contour>
      <point x="452" y="723" type="line" smooth="yes"/>
      <point x="593" y="723"/>
      <point x="640" y="683"/>
      <point x="640" y="563" type="curve" smooth="yes"/>
      <point x="640" y="437"/>
      <point x="596" y="399"/>
      <point x="452" y="399" type="curve" smooth="yes"/>
      <point x="322" y="399" type="line"/>
      <point x="322" y="723" type="line"/>
    </contour>
    <contour>
      <point x="700" y="197" type="curve" smooth="yes" name="hr05"/>
      <point x="700" y="70"/>
      <point x="652" y="27"/>
      <point x="512" y="27" type="curve" smooth="yes"/>
      <point x="322" y="27" type="line"/>
      <point x="322" y="372" type="line"/>
      <point x="512" y="372" type="line" smooth="yes"/>
      <point x="651" y="372"/>
      <point x="700" y="326"/>
    </contour>
  </outline>
</glyph>
<glyph name="C" format="2">
  <advance width="930"/>
  <unicode hex="0043"/>
  <outline>
    <contour>
      <point x="496" y="9" type="curve" smooth="yes" name="hr01"/>
      <point x="293" y="9"/>
      <point x="230" y="110"/>
      <point x="230" y="367" type="curve" smooth="yes"/>
      <point x="230" y="640"/>
      <point x="289" y="743"/>
      <point x="491" y="743" type="curve" smooth="yes"/>
      <point x="696" y="743"/>
      <point x="795" y="629"/>
      <point x="795" y="421" type="curve" name="hr02"/>
      <point x="820" y="421" type="line"/>
      <point x="820" y="750" type="line"/>
      <point x="795" y="750" type="line"/>
      <point x="795" y="580" type="line"/>
      <point x="751" y="703"/>
      <point x="647" y="770"/>
      <point x="490" y="770" type="curve" smooth="yes"/>
      <point x="214" y="770"/>
      <point x="90" y="627"/>
      <point x="90" y="368" type="curve" smooth="yes"/>
      <point x="90" y="116"/>
      <point x="219" y="-20"/>
      <point x="496" y="-20" type="curve" smooth="yes"/>
      <point x="657" y="-20"/>
      <point x="768" y="43"/>
      <point x="815" y="164" type="curve" name="hr03"/>
      <point x="815" y="1" type="line"/>
      <point x="840" y="1" type="line"/>
      <point x="840" y="311" type="line"/>
      <point x="815" y="311" type="line"/>
      <point x="815" y="105"/>
      <point x="694" y="9"/>
    </contour>
  </outline>
</glyph>
<glyph name="H" format="2">
  <advance width="930"/>
  <unicode hex="0048"/>
  <outline>
    <contour>
      <point x="494" y="725" type="line" name="hr00"/>
      <point x="608" y="725" type="line"/>
      <point x="608" y="404" type="line"/>
      <point x="322" y="404" type="line"/>
      <point x="322" y="725" type="line"/>
      <point x="436" y="725" type="line"/>
      <point x="436" y="750" type="line"/>
      <point x="90" y="750" type="line"/>
      <point x="90" y="725" type="line"/>
      <point x="194" y="725" type="line"/>
      <point x="194" y="25" type="line"/>
      <point x="90" y="25" type="line"/>
      <point x="90" y="0" type="line"/>
      <point x="436" y="0" type="line"/>
      <point x="436" y="25" type="line"/>
      <point x="322" y="25" type="line"/>
      <point x="322" y="377" type="line"/>
      <point x="608" y="377" type="line"/>
      <point x="608" y="25" type="line"/>
      <point x="494" y="25" type="line"/>
      <point x="494" y="0" type="line"/>
      <point x="840" y="0" type="line"/>
      <point x="840" y="25" type="line"/>
      <point x="736" y="25" type="line"/>
      <point x="736" y="725" type="line"/>
      <point x="840" y="725" type="line"/>
      <point x="840" y="750" type="line"/>
      <point x="494" y="750" type="line"/>
    </contour>
  </outline>
</glyph>
<glyph name="L" format="2">
  <advance width="930"/>
  <unicode hex="004C"/>
  <outline>
    <contour>
      <point x="91" y="725" type="line" name="hr01"/>
      <point x="194" y="725" type="line"/>
      <point x="194" y="25" type="line" name="hr02"/>
      <point x="90" y="25" type="line"/>
      <point x="90" y="0" type="line" name="hr03"/>
      <point x="820" y="0" type="line"/>
      <point x="820" y="339" type="line"/>
      <point x="795" y="339" type="line"/>
      <point x="795" y="194" type="line" smooth="yes"/>
      <point x="795" y="60"/>
      <point x="762" y="27"/>
      <point x="618" y="27" type="curve" smooth="yes"/>
      <point x="322" y="27" type="line"/>
      <point x="322" y="725" type="line"/>
      <point x="445" y="725" type="line"/>
      <point x="445" y="750" type="line"/>
      <point x="91" y="750" type="line"/>
    </contour>
  </outline>
</glyph>
<glyph name="M" format="2">
  <advance width="930"/>
  <unicode hex="004D"/>
  <outline>
    <contour>
      <point x="376" y="750" type="line" name="hr01"/>
      <point x="115" y="750" type="line"/>
      <point x="115" y="725" type="line"/>
      <point x="220" y="725" type="line"/>
      <point x="150" y="25" type="line" name="hr02"/>
      <point x="70" y="25" type="line"/>
      <point x="70" y="0" type="line"/>
      <point x="291" y="0" type="line"/>
      <point x="291" y="25" type="line"/>
      <point x="181" y="25" type="line"/>
      <point x="251" y="725" type="line"/>
      <point x="253" y="725" type="line"/>
      <point x="420" y="-18" type="line"/>
      <point x="419" y="-20" type="line"/>
      <point x="450" y="-20" type="line"/>
      <point x="622" y="725" type="line"/>
      <point x="624" y="725" type="line"/>
      <point x="690" y="25" type="line"/>
      <point x="583" y="25" type="line"/>
      <point x="583" y="0" type="line"/>
      <point x="900" y="0" type="line"/>
      <point x="900" y="25" type="line"/>
      <point x="817" y="25" type="line"/>
      <point x="751" y="725" type="line"/>
      <point x="844" y="725" type="line"/>
      <point x="844" y="750" type="line"/>
      <point x="597" y="750" type="line"/>
      <point x="481" y="249" type="line"/>
    </contour>
  </outline>
</glyph>
<glyph name="N" format="2">
  <advance width="930"/>
  <unicode hex="004E"/>
  <outline>
    <contour>
      <point x="90" y="725" type="line" name="hr00"/>
      <point x="184" y="725" type="line"/>
      <point x="184" y="25" type="line"/>
      <point x="90" y="25" type="line"/>
      <point x="90" y="0" type="line"/>
      <point x="339" y="0" type="line"/>
      <point x="339" y="25" type="line"/>
      <point x="212" y="25" type="line"/>
      <point x="212" y="724" type="line"/>
      <point x="728" y="-20" type="line"/>
      <point x="729" y="-9" type="line"/>
      <point x="729" y="-20" type="line"/>
      <point x="756" y="-20" type="line"/>
      <point x="756" y="725" type="line"/>
      <point x="850" y="725" type="line"/>
      <point x="850" y="750" type="line"/>
      <point x="600" y="750" type="line"/>
      <point x="600" y="725" type="line"/>
      <point x="729" y="725" type="line"/>
      <point x="729" y="200" type="line"/>
      <point x="349" y="750" type="line"/>
      <point x="90" y="750" type="line"/>
    </contour>
  </outline>
</glyph>
<glyph name="P" format="2">
  <advance width="930"/>
  <unicode hex="0050"/>
  <outline>
    <contour>
      <point x="90" y="725" type="line" name="hr01"/>
      <point x="194" y="725" type="line"/>
      <point x="194" y="25" type="line"/>
      <point x="90" y="25" type="line"/>
      <point x="90" y="0" type="line"/>
      <point x="494" y="0" type="line"/>
      <point x="494" y="25" type="line"/>
      <point x="322" y="25" type="line"/>
      <point x="322" y="321" type="line"/>
      <point x="564" y="321" type="line" smooth="yes"/>
      <point x="700" y="321"/>
      <point x="840" y="389"/>
      <point x="840" y="537" type="curve" smooth="yes"/>
      <point x="840" y="683"/>
      <point x="715" y="750"/>
      <point x="573" y="750" type="curve" smooth="yes"/>
      <point x="90" y="750" type="line"/>
    </contour>
    <contour>
      <point x="512" y="723" type="line" smooth="yes" name="hr02"/>
      <point x="652" y="723"/>
      <point x="700" y="676"/>
      <point x="700" y="538" type="curve" smooth="yes"/>
      <point x="700" y="398"/>
      <point x="650" y="348"/>
      <point x="512" y="348" type="curve" smooth="yes"/>
      <point x="322" y="348" type="line"/>
      <point x="322" y="723" type="line"/>
    </contour>
  </outline>
</glyph>
<glyph name="R" format="2">
  <advance width="930"/>
  <unicode hex="0052"/>
  <outline>
    <contour>
      <point x="90" y="725" type="line" name="hr01"/>
      <point x="194" y="725" type="line"/>
      <point x="194" y="25" type="line"/>
      <point x="90" y="25" type="line"/>
      <point x="90" y="0" type="line"/>
      <point x="491" y="0" type="line"/>
      <point x="491" y="25" type="line"/>
      <point x="322" y="25" type="line"/>
      <point x="322" y="361" type="line"/>
      <point x="415" y="361" type="line" smooth="yes"/>
      <point x="628" y="361"/>
      <point x="451" y="-20"/>
      <point x="725" y="-20" type="curve" smooth="yes" name="hr02"/>
      <point x="809" y="-20"/>
      <point x="856" y="19"/>
      <point x="856" y="103" type="curve" smooth="yes"/>
      <point x="856" y="210" type="line"/>
      <point x="831" y="210" type="line"/>
      <point x="831" y="103" type="line" smooth="yes"/>
      <point x="831" y="48"/>
      <point x="811" y="27"/>
      <point x="769" y="27" type="curve" smooth="yes"/>
      <point x="657" y="27"/>
      <point x="721" y="294"/>
      <point x="528" y="361" type="curve"/>
      <point x="663" y="362"/>
      <point x="800" y="424"/>
      <point x="800" y="557" type="curve" smooth="yes"/>
      <point x="800" y="689"/>
      <point x="675" y="750"/>
      <point x="533" y="750" type="curve" smooth="yes"/>
      <point x="90" y="750" type="line"/>
    </contour>
    <contour>
      <point x="472" y="723" type="line" smooth="yes"/>
      <point x="585" y="723"/>
      <point x="660" y="705"/>
      <point x="660" y="558" type="curve" smooth="yes"/>
      <point x="660" y="410"/>
      <point x="585" y="388"/>
      <point x="472" y="388" type="curve" smooth="yes"/>
      <point x="322" y="388" type="line"/>
      <point x="322" y="723" type="line"/>
    </contour>
  </outline>
</glyph>
<glyph name="S" format="2">
  <advance width="930"/>
  <unicode hex="0053"/>
  <outline>
    <contour>
      <point x="684" y="750" type="line" name="hr01"/>
      <point x="684" y="605" type="line"/>
      <point x="639" y="719"/>
      <point x="541" y="770"/>
      <point x="435" y="770" type="curve" smooth="yes" name="hr02"/>
      <point x="306" y="770"/>
      <point x="163" y="701"/>
      <point x="163" y="569" type="curve" smooth="yes"/>
      <point x="163" y="443"/>
      <point x="241" y="375"/>
      <point x="450" y="315" type="curve" smooth="yes"/>
      <point x="654" y="256"/>
      <point x="694" y="228"/>
      <point x="694" y="132" type="curve" smooth="yes"/>
      <point x="694" y="54"/>
      <point x="640" y="7"/>
      <point x="488" y="7" type="curve" smooth="yes"/>
      <point x="305" y="7"/>
      <point x="143" y="121"/>
      <point x="143" y="301" type="curve" smooth="yes" name="hr03"/>
      <point x="143" y="333" type="line"/>
      <point x="118" y="333" type="line"/>
      <point x="118" y="0" type="line"/>
      <point x="143" y="0" type="line"/>
      <point x="143" y="178" type="line"/>
      <point x="197" y="56"/>
      <point x="333" y="-20"/>
      <point x="491" y="-20" type="curve" smooth="yes"/>
      <point x="672" y="-20"/>
      <point x="824" y="46"/>
      <point x="824" y="180" type="curve" smooth="yes"/>
      <point x="824" y="285"/>
      <point x="768" y="358"/>
      <point x="518" y="429" type="curve"/>
      <point x="321" y="483"/>
      <point x="284" y="512"/>
      <point x="284" y="610" type="curve" smooth="yes" name="hr04"/>
      <point x="284" y="707"/>
      <point x="339" y="743"/>
      <point x="450" y="743" type="curve" smooth="yes"/>
      <point x="570" y="743"/>
      <point x="684" y="648"/>
      <point x="684" y="469" type="curve" smooth="yes"/>
      <point x="684" y="457" type="line" name="hr05"/>
      <point x="709" y="457" type="line"/>
      <point x="709" y="750" type="line"/>
    </contour>
  </outline>
</glyph>
<glyph name="V" format="2">
  <advance width="930"/>
  <unicode hex="0056"/>
  <outline>
    <contour>
      <point x="402" y="725" type="line" name="hr01"/>
      <point x="402" y="750" type="line"/>
      <point x="60" y="750" type="line"/>
      <point x="60" y="725" type="line"/>
      <point x="134" y="725" type="line"/>
      <point x="398" y="0" type="line"/>
      <point x="538" y="0" type="line"/>
      <point x="800" y="725" type="line" name="hr02"/>
      <point x="870" y="725" type="line"/>
      <point x="870" y="750" type="line"/>
      <point x="624" y="750" type="line"/>
      <point x="624" y="725" type="line"/>
      <point x="769" y="725" type="line"/>
      <point x="516" y="25" type="line"/>
      <point x="261" y="725" type="line"/>
    </contour>
  </outline>
</glyph>
<glyph name="Y" format="2">
  <advance width="930"/>
  <unicode hex="0059"/>
  <outline>
    <contour>
      <point x="60" y="725" type="line" name="hr00"/>
      <point x="158" y="725" type="line"/>
      <point x="401" y="209" type="line"/>
      <point x="401" y="25" type="line"/>
      <point x="220" y="25" type="line"/>
      <point x="220" y="0" type="line"/>
      <point x="710" y="0" type="line"/>
      <point x="710" y="25" type="line"/>
      <point x="529" y="25" type="line"/>
      <point x="529" y="212" type="line"/>
      <point x="775" y="725" type="line"/>
      <point x="870" y="725" type="line"/>
      <point x="870" y="750" type="line"/>
      <point x="60" y="750" type="line"/>
    </contour>
    <contour>
      <point x="514" y="241" type="line"/>
      <point x="302" y="725" type="line"/>
      <point x="744" y="725" type="line"/>
    </contour>
  </outline>
</glyph>
<glyph name="Z" format="2">
  <advance width="930"/>
  <unicode hex="005A"/>
  <outline>
    <contour>
      <point x="117" y="27" type="line" name="hr00"/>
      <point x="117" y="0" type="line"/>
      <point x="811" y="0" type="line"/>
      <point x="811" y="449" type="line"/>
      <point x="786" y="449" type="line"/>
      <point x="786" y="194" type="line" smooth="yes"/>
      <point x="786" y="60"/>
      <point x="753" y="27"/>
      <point x="609" y="27" type="curve" smooth="yes"/>
      <point x="277" y="27" type="line"/>
      <point x="817" y="723" type="line"/>
      <point x="817" y="750" type="line"/>
      <point x="135" y="750" type="line"/>
      <point x="135" y="341" type="line"/>
      <point x="160" y="341" type="line"/>
      <point x="160" y="556" type="line" smooth="yes"/>
      <point x="160" y="690"/>
      <point x="193" y="723"/>
      <point x="337" y="723" type="curve" smooth="yes"/>
      <point x="653" y="723" type="line"/>
    </contour>
  </outline>
</glyph>
<glyph name="backslash" format="2">
  <advance width="465"/>
  <unicode hex="005C"/>
  <outline>
    <contour>
      <point x="335" y="0" type="line" name="hr00"/>
      <point x="366" y="0" type="line"/>
      <point x="131" y="750" type="line"/>
      <point x="100" y="750" type="line"/>
    </contour>
  </outline>
</glyph>
<glyph name="bracketright" format="2">
  <advance width="465"/>
  <unicode hex="005D"/>
  <outline>
    <contour>
      <point x="31" y="803" type="line" name="hr00"/>
      <point x="309" y="803" type="line"/>
      <point x="309" y="-53" type="line"/>
      <point x="31" y="-53" type="line"/>
      <point x="31" y="-80" type="line"/>
      <point x="336" y="-80" type="line"/>
      <point x="336" y="830" type="line"/>
      <point x="31" y="830" type="line"/>
    </contour>
  </outline>
</glyph>
<glyph name="e" format="2">
  <advance width="930"/>
  <unicode hex="0065"/>
  <outline>
    <contour>
      <point x="461" y="770" type="curve" smooth="yes" name="hr00"/>
      <point x="214" y="770"/>
      <point x="90" y="627"/>
      <point x="90" y="368" type="curve" smooth="yes"/>
      <point x="90" y="116"/>
      <point x="219" y="-20"/>
      <point x="496" y="-20" type="curve" smooth="yes"/>
      <point x="714" y="-20"/>
      <point x="840" y="86"/>
      <point x="840" y="282" type="curve"/>
      <point x="813" y="282" type="line"/>
      <point x="813" y="96"/>
      <point x="693" y="9"/>
      <point x="496" y="9" type="curve" smooth="yes"/>
      <point x="297" y="9"/>
      <point x="233" y="106"/>
      <point x="230" y="351" type="curve"/>
      <point x="840" y="351" type="line"/>
      <point x="842" y="621"/>
      <point x="719" y="770"/>
    </contour>
    <contour>
      <point x="462" y="743" type="curve" smooth="yes"/>
      <point x="637" y="743"/>
      <point x="698" y="642"/>
      <point x="700" y="378" type="curve"/>
      <point x="230" y="378" type="line"/>
      <point x="232" y="643"/>
      <point x="291" y="743"/>
    </contour>
  </outline>
</glyph>
<glyph name="l" format="2">
  <advance width="930"/>
  <unicode hex="006C"/>
  <outline>
    <contour>
      <point x="810" y="300" type="line" name="hr01"/>
      <point x="785" y="300" type="line"/>
      <point x="785" y="274" type="line" smooth="yes"/>
      <point x="785" y="106"/>
      <point x="738" y="27"/>
      <point x="557" y="27" type="curve" smooth="yes"/>
      <point x="312" y="27" type="line"/>
      <point x="312" y="38" type="line" smooth="yes"/>
      <point x="320" y="280"/>
      <point x="780" y="224"/>
      <point x="780" y="508" type="curve" smooth="yes" name="hr02"/>
      <point x="780" y="674"/>
      <point x="667" y="771"/>
      <point x="484" y="770" type="curve" smooth="yes"/>
      <point x="274" y="769"/>
      <point x="184" y="652"/>
      <point x="184" y="413" type="curve" smooth="yes"/>
      <point x="184" y="25" type="line"/>
      <point x="80" y="25" type="line"/>
      <point x="80" y="0" type="line" name="hr03"/>
      <point x="810" y="0" type="line"/>
    </contour>
    <contour>
      <point x="312" y="413" type="line" smooth="yes"/>
      <point x="312" y="661"/>
      <point x="342" y="743"/>
      <point x="486" y="743" type="curve" smooth="yes"/>
      <point x="632" y="743"/>
      <point x="753" y="676"/>
      <point x="753" y="508" type="curve" smooth="yes" name="hr04"/>
      <point x="753" y="277"/>
      <point x="392" y="285"/>
      <point x="312" y="129" type="curve"/>
    </contour>
  </outline>
</glyph>
<glyph name="r" format="2">
  <advance width="930"/>
  <unicode hex="0072"/>
  <outline>
    <contour>
      <point x="90" y="725" type="line" name="hr01"/>
      <point x="338" y="725" type="line"/>
      <point x="338" y="25" type="line"/>
      <point x="90" y="25" type="line"/>
      <point x="90" y="0" type="line"/>
      <point x="749" y="0" type="line"/>
      <point x="749" y="25" type="line"/>
      <point x="466" y="25" type="line"/>
      <point x="466" y="431" type="line" smooth="yes"/>
      <point x="466" y="648"/>
      <point x="506" y="741"/>
      <point x="640" y="741" type="curve" smooth="yes" name="hr02"/>
      <point x="753" y="741"/>
      <point x="805" y="669"/>
      <point x="805" y="366" type="curve" smooth="yes"/>
      <point x="805" y="337" type="line"/>
      <point x="830" y="337" type="line"/>
      <point x="830" y="750" type="line"/>
      <point x="805" y="750" type="line"/>
      <point x="805" y="630" type="line"/>
      <point x="776" y="734"/>
      <point x="722" y="770"/>
      <point x="640" y="770" type="curve" smooth="yes"/>
      <point x="551" y="770"/>
      <point x="486" y="730"/>
      <point x="456" y="614" type="curve"/>
      <point x="456" y="750" type="line" name="hr03"/>
      <point x="90" y="750" type="line"/>
    </contour>
  </outline>
</glyph>
<glyph name="s" format="2">
  <advance width="930"/>
  <unicode hex="0073"/>
  <outline>
    <contour>
      <point x="689" y="750" type="line" name="hr01"/>
      <point x="689" y="605" type="line"/>
      <point x="644" y="719"/>
      <point x="546" y="770"/>
      <point x="440" y="770" type="curve" smooth="yes" name="hr02"/>
      <point x="311" y="770"/>
      <point x="168" y="701"/>
      <point x="168" y="569" type="curve" smooth="yes"/>
      <point x="168" y="443"/>
      <point x="244" y="374"/>
      <point x="450" y="315" type="curve" smooth="yes"/>
      <point x="653" y="256"/>
      <point x="693" y="228"/>
      <point x="693" y="132" type="curve" smooth="yes"/>
      <point x="693" y="54"/>
      <point x="634" y="7"/>
      <point x="468" y="7" type="curve" smooth="yes"/>
      <point x="249" y="7"/>
      <point x="145" y="76"/>
      <point x="145" y="271" type="curve" smooth="yes" name="hr03"/>
      <point x="145" y="303" type="line"/>
      <point x="118" y="303" type="line"/>
      <point x="118" y="269" type="line" smooth="yes"/>
      <point x="118" y="63"/>
      <point x="231" y="-20"/>
      <point x="471" y="-20" type="curve" smooth="yes"/>
      <point x="663" y="-20"/>
      <point x="824" y="47"/>
      <point x="824" y="183" type="curve" smooth="yes"/>
      <point x="824" y="287"/>
      <point x="768" y="358"/>
      <point x="518" y="429" type="curve"/>
      <point x="325" y="482"/>
      <point x="289" y="512"/>
      <point x="289" y="610" type="curve" smooth="yes" name="hr04"/>
      <point x="289" y="707"/>
      <point x="344" y="743"/>
      <point x="455" y="743" type="curve" smooth="yes"/>
      <point x="575" y="743"/>
      <point x="689" y="648"/>
      <point x="689" y="469" type="curve" smooth="yes"/>
      <point x="689" y="457" type="line" name="hr05"/>
      <point x="714" y="457" type="line"/>
      <point x="714" y="750" type="line"/>
    </contour>
  </outline>
</glyph>
<glyph name="v" format="2">
  <advance width="930"/>
  <unicode hex="0076"/>
  <outline>
    <contour>
      <point x="70" y="725" type="line" name="hr01"/>
      <point x="169" y="725" type="line"/>
      <point x="169" y="280" type="line" smooth="yes"/>
      <point x="169" y="59"/>
      <point x="232" y="-20"/>
      <point x="353" y="-20" type="curve" smooth="yes"/>
      <point x="596" y="-20"/>
      <point x="760" y="223"/>
      <point x="781" y="479" type="curve"/>
      <point x="847" y="527"/>
      <point x="890" y="615"/>
      <point x="890" y="750" type="curve"/>
      <point x="861" y="750" type="line"/>
      <point x="864" y="638"/>
      <point x="832" y="561"/>
      <point x="784" y="516" type="curve"/>
      <point x="784" y="523"/>
      <point x="784" y="531"/>
      <point x="784" y="538" type="curve" smooth="yes"/>
      <point x="784" y="684"/>
      <point x="713" y="770"/>
      <point x="614" y="770" type="curve" smooth="yes" name="hr02"/>
      <point x="511" y="770"/>
      <point x="444" y="701"/>
      <point x="444" y="601" type="curve" smooth="yes"/>
      <point x="444" y="501"/>
      <point x="504" y="435"/>
      <point x="635" y="435" type="curve" smooth="yes"/>
      <point x="677" y="435"/>
      <point x="716" y="443"/>
      <point x="751" y="461" type="curve"/>
      <point x="725" y="228"/>
      <point x="576" y="24"/>
      <point x="388" y="24" type="curve" smooth="yes"/>
      <point x="312" y="24"/>
      <point x="297" y="44"/>
      <point x="297" y="280" type="curve" smooth="yes"/>
      <point x="297" y="725" type="line" name="hr03"/>
      <point x="406" y="725" type="line"/>
      <point x="406" y="750" type="line"/>
      <point x="70" y="750" type="line"/>
    </contour>
    <contour>
      <point x="472" y="601" type="curve" smooth="yes"/>
      <point x="472" y="691"/>
      <point x="528" y="742"/>
      <point x="615" y="742" type="curve" smooth="yes" name="hr04"/>
      <point x="700" y="742"/>
      <point x="755" y="666"/>
      <point x="755" y="534" type="curve" smooth="yes"/>
      <point x="755" y="520"/>
      <point x="755" y="506"/>
      <point x="754" y="493" type="curve"/>
      <point x="721" y="473"/>
      <point x="684" y="463"/>
      <point x="647" y="463" type="curve" smooth="yes"/>
      <point x="517" y="463"/>
      <point x="472" y="513"/>
    </contour>
  </outline>
</glyph>
<glyph name="x" format="2">
  <advance width="930"/>
  <unicode hex="0078"/>
  <outline>
    <contour>
      <point x="844" y="251" type="curve" name="hr01"/>
      <point x="817" y="251" type="line"/>
      <point x="815" y="127"/>
      <point x="786" y="22"/>
      <point x="683" y="22" type="curve" smooth="yes"/>
      <point x="577" y="22"/>
      <point x="525" y="160"/>
      <point x="525" y="412" type="curve" smooth="yes"/>
      <point x="525" y="627"/>
      <point x="588" y="743"/>
      <point x="672" y="743" type="curve" smooth="yes"/>
      <point x="740" y="743"/>
      <point x="797" y="681"/>
      <point x="797" y="513" type="curve" name="hr02"/>
      <point x="824" y="513" type="line"/>
      <point x="824" y="710"/>
      <point x="747" y="770"/>
      <point x="667" y="770" type="curve" smooth="yes"/>
      <point x="594" y="770"/>
      <point x="533" y="699"/>
      <point x="508" y="589" type="curve"/>
      <point x="479" y="721"/>
      <point x="409" y="770"/>
      <point x="289" y="770" type="curve" smooth="yes" name="hr03"/>
      <point x="174" y="770"/>
      <point x="97" y="710"/>
      <point x="97" y="513" type="curve"/>
      <point x="124" y="513" type="line"/>
      <point x="124" y="676"/>
      <point x="181" y="737"/>
      <point x="249" y="737" type="curve" smooth="yes"/>
      <point x="329" y="737"/>
      <point x="404" y="623"/>
      <point x="404" y="412" type="curve" smooth="yes"/>
      <point x="404" y="151"/>
      <point x="338" y="8"/>
      <point x="236" y="8" type="curve" smooth="yes"/>
      <point x="135" y="8"/>
      <point x="106" y="119"/>
      <point x="104" y="251" type="curve" name="hr04"/>
      <point x="77" y="251" type="line"/>
      <point x="77" y="124"/>
      <point x="108" y="-20"/>
      <point x="239" y="-20" type="curve" smooth="yes"/>
      <point x="331" y="-20"/>
      <point x="389" y="58"/>
      <point x="422" y="210" type="curve"/>
      <point x="454" y="57"/>
      <point x="529" y="-20"/>
      <point x="654" y="-20" type="curve" smooth="yes" name="hr05"/>
      <point x="813" y="-20"/>
      <point x="844" y="124"/>
    </contour>
  </outline>
</glyph>
<glyph name="z" format="2">
  <advance width="930"/>
  <unicode hex="007A"/>
  <outline>
    <contour>
      <point x="95" y="0" type="line" name="hr00"/>
      <point x="131" y="0" type="line"/>
      <point x="217" y="91" type="line" smooth="yes"/>
      <point x="260" y="136"/>
      <point x="283" y="159"/>
      <point x="323" y="159" type="curve" smooth="yes"/>
      <point x="384" y="159"/>
      <point x="537" y="-20"/>
      <point x="648" y="-20" type="curve" smooth="yes"/>
      <point x="766" y="-20"/>
      <point x="813" y="81"/>
      <point x="813" y="232" type="curve" smooth="yes"/>
      <point x="813" y="347" type="line"/>
      <point x="787" y="347" type="line"/>
      <point x="787" y="228" type="line" smooth="yes"/>
      <point x="787" y="131"/>
      <point x="759" y="92"/>
      <point x="702" y="92" type="curve" smooth="yes"/>
      <point x="637" y="92"/>
      <point x="518" y="227"/>
      <point x="434" y="227" type="curve" smooth="yes"/>
      <point x="385" y="227"/>
      <point x="341" y="210"/>
      <point x="307" y="186" type="curve"/>
      <point x="817" y="723" type="line"/>
      <point x="817" y="750" type="line"/>
      <point x="135" y="750" type="line"/>
      <point x="135" y="341" type="line"/>
      <point x="161" y="341" type="line"/>
      <point x="161" y="556" type="line" smooth="yes"/>
      <point x="161" y="690"/>
      <point x="194" y="723"/>
      <point x="337" y="723" type="curve" smooth="yes"/>
      <point x="630" y="723" type="line"/>
    </contour>
  </outline>
</glyph>
<glyph name="braceleft" format="2">
  <advance width="465"/>
  <unicode hex="007B"/>
  <outline>
    <contour>
      <point x="280" y="270" type="curve" smooth="yes" name="hr00"/>
      <point x="280" y="195"/>
      <point x="170" y="134"/>
      <point x="170" y="48" type="curve" smooth="yes"/>
      <point x="170" y="-30"/>
      <point x="250" y="-81"/>
      <point x="444" y="-81" type="curve"/>
      <point x="444" y="-54" type="line"/>
      <point x="283" y="-54"/>
      <point x="200" y="-16"/>
      <point x="200" y="48" type="curve" smooth="yes"/>
      <point x="200" y="118"/>
      <point x="309" y="182"/>
      <point x="309" y="271" type="curve" smooth="yes"/>
      <point x="309" y="326"/>
      <point x="273" y="361"/>
      <point x="202" y="374" type="curve"/>
      <point x="273" y="388"/>
      <point x="309" y="423"/>
      <point x="309" y="478" type="curve" smooth="yes"/>
      <point x="309" y="567"/>
      <point x="200" y="631"/>
      <point x="200" y="701" type="curve" smooth="yes"/>
      <point x="200" y="765"/>
      <point x="283" y="803"/>
      <point x="444" y="803" type="curve"/>
      <point x="444" y="830" type="line"/>
      <point x="250" y="830"/>
      <point x="170" y="779"/>
      <point x="170" y="701" type="curve" smooth="yes"/>
      <point x="170" y="615"/>
      <point x="280" y="554"/>
      <point x="280" y="479" type="curve" smooth="yes"/>
      <point x="280" y="417"/>
      <point x="228" y="388"/>
      <point x="125" y="388" type="curve" smooth="yes"/>
      <point x="72" y="388" type="line"/>
      <point x="72" y="361" type="line"/>
      <point x="125" y="361" type="line" smooth="yes"/>
      <point x="228" y="361"/>
      <point x="280" y="332"/>
    </contour>
  </outline>
</glyph>
<glyph name="exclamdown" format="2">
  <advance width="465"/>
  <unicode hex="00A1"/>
  <outline>
    <contour>
      <point x="327" y="750" type="line" name="hr01"/>
      <point x="327" y="531" type="line"/>
      <point x="354" y="531" type="line"/>
      <point x="354" y="750" type="line"/>
    </contour>
    <contour>
      <point x="327" y="485" type="line"/>
      <point x="317" y="-50" type="line" name="hr02"/>
      <point x="364" y="-50" type="line" name="hr03"/>
      <point x="354" y="485" type="line"/>
    </contour>
  </outline>
</glyph>
<glyph name="section" format="2">
  <advance width="930"/>
  <unicode hex="00A7"/>
  <outline>
    <contour>
      <point x="714" y="757" type="line" name="hr01"/>
      <point x="689" y="757" type="line"/>
      <point x="689" y="660" type="line"/>
      <point x="646" y="736"/>
      <point x="547" y="770"/>
      <point x="440" y="770" type="curve" smooth="yes" name="hr02"/>
      <point x="311" y="770"/>
      <point x="168" y="726"/>
      <point x="168" y="642" type="curve" smooth="yes"/>
      <point x="168" y="567"/>
      <point x="234" y="524"/>
      <point x="410" y="489" type="curve"/>
      <point x="237" y="484"/>
      <point x="98" y="440"/>
      <point x="98" y="353" type="curve" smooth="yes" name="hr03"/>
      <point x="98" y="279"/>
      <point x="157" y="225"/>
      <point x="424" y="177" type="curve" smooth="yes"/>
      <point x="616" y="143"/>
      <point x="653" y="134"/>
      <point x="653" y="82" type="curve" smooth="yes"/>
      <point x="653" y="27"/>
      <point x="591" y="7"/>
      <point x="467" y="7" type="curve" smooth="yes"/>
      <point x="337" y="7"/>
      <point x="213" y="64"/>
      <point x="213" y="171" type="curve" smooth="yes" name="hr04"/>
      <point x="213" y="179" type="line"/>
      <point x="188" y="179" type="line" name="hr05"/>
      <point x="188" y="-7" type="line"/>
      <point x="213" y="-7" type="line"/>
      <point x="213" y="93" type="line"/>
      <point x="258" y="15"/>
      <point x="366" y="-20"/>
      <point x="482" y="-20" type="curve" smooth="yes" name="hr06"/>
      <point x="620" y="-20"/>
      <point x="774" y="24"/>
      <point x="774" y="108" type="curve" smooth="yes"/>
      <point x="774" y="183"/>
      <point x="708" y="226"/>
      <point x="532" y="261" type="curve"/>
      <point x="705" y="266"/>
      <point x="844" y="310"/>
      <point x="844" y="397" type="curve" smooth="yes" name="hr07"/>
      <point x="844" y="471"/>
      <point x="785" y="525"/>
      <point x="518" y="573" type="curve" smooth="yes"/>
      <point x="326" y="607"/>
      <point x="289" y="616"/>
      <point x="289" y="668" type="curve" smooth="yes"/>
      <point x="289" y="723"/>
      <point x="344" y="743"/>
      <point x="455" y="743" type="curve" smooth="yes"/>
      <point x="575" y="743"/>
      <point x="689" y="686"/>
      <point x="689" y="579" type="curve" smooth="yes" name="hr08"/>
      <point x="689" y="571" type="line"/>
      <point x="714" y="571" type="line" name="hr09"/>
    </contour>
    <contour>
      <point x="229" y="386" type="curve" smooth="yes"/>
      <point x="229" y="435"/>
      <point x="285" y="465"/>
      <point x="444" y="465" type="curve" smooth="yes"/>
      <point x="496" y="465"/>
      <point x="540" y="462"/>
      <point x="578" y="455" type="curve" smooth="yes"/>
      <point x="611" y="448"/>
      <point x="637" y="441"/>
      <point x="656" y="433" type="curve" smooth="yes" name="hr10"/>
      <point x="693" y="416"/>
      <point x="713" y="393"/>
      <point x="713" y="364" type="curve" smooth="yes"/>
      <point x="713" y="315"/>
      <point x="657" y="285"/>
      <point x="498" y="285" type="curve" smooth="yes"/>
      <point x="445" y="285"/>
      <point x="399" y="289"/>
      <point x="361" y="296" type="curve" smooth="yes"/>
      <point x="333" y="302"/>
      <point x="310" y="308"/>
      <point x="292" y="315" type="curve" smooth="yes"/>
      <point x="251" y="332"/>
      <point x="229" y="356"/>
    </contour>
  </outline>
</glyph>
<glyph name="guillemotleft" format="2">
  <advance width="465"/>
  <unicode hex="00AB"/>
  <outline>
    <contour>
      <point x="212" y="162" type="curve" name="hr00"/>
      <point x="227" y="162" type="line"/>
      <point x="207" y="269"/>
      <point x="189" y="318"/>
      <point x="128" y="397" type="curve"/>
      <point x="189" y="476"/>
      <point x="207" y="525"/>
      <point x="227" y="632" type="curve"/>
      <point x="212" y="632" type="line"/>
      <point x="185" y="525"/>
      <point x="149" y="480"/>
      <point x="70" y="397" type="curve"/>
      <point x="149" y="314"/>
      <point x="185" y="269"/>
    </contour>
    <contour>
      <point x="342" y="162" type="curve"/>
      <point x="357" y="162" type="line"/>
      <point x="337" y="269"/>
      <point x="319" y="318"/>
      <point x="258" y="397" type="curve"/>
      <point x="319" y="476"/>
      <point x="337" y="525"/>
      <point x="357" y="632" type="curve"/>
      <point x="342" y="632" type="line"/>
      <point x="315" y="525"/>
      <point x="279" y="480"/>
      <point x="200" y="397" type="curve"/>
      <point x="279" y="314"/>
      <point x="315" y="269"/>
    </contour>
  </outline>
</glyph>
<glyph name="macron" format="2">
  <advance width="600"/>
  <unicode hex="00AF"/>
  <outline>
    <contour>
      <point x="513" y="857" type="line" name="hr00"/>
      <point x="87" y="857" type="line"/>
      <point x="87" y="825" type="line"/>
      <point x="513" y="825" type="line"/>
    </contour>
  </outline>
</glyph>
<glyph name="degree" format="2">
  <advance width="465"/>
  <unicode hex="00B0"/>
  <outline>
    <contour>
      <point x="231" y="770" type="curve" smooth="yes" name="hr00"/>
      <point x="148" y="770"/>
      <point x="107" y="723"/>
      <point x="107" y="638" type="curve" smooth="yes"/>
      <point x="107" y="561"/>
      <point x="150" y="520"/>
      <point x="231" y="520" type="curve" smooth="yes"/>
      <point x="313" y="520"/>
      <point x="357" y="561"/>
      <point x="357" y="638" type="curve" smooth="yes"/>
      <point x="357" y="723"/>
      <point x="315" y="770"/>
    </contour>
    <contour>
      <point x="231" y="743" type="curve" smooth="yes"/>
      <point x="300" y="743"/>
      <point x="330" y="711"/>
      <point x="330" y="637" type="curve" smooth="yes"/>
      <point x="330" y="575"/>
      <point x="298" y="547"/>
      <point x="231" y="547" type="curve" smooth="yes"/>
      <point x="165" y="547"/>
      <point x="134" y="575"/>
      <point x="134" y="637" type="curve" smooth="yes"/>
      <point x="134" y="711"/>
      <point x="163" y="743"/>
    </contour>
  </outline>
</glyph>
<glyph name="ae" format="2">
  <advance width="930"/>
  <unicode hex="00E6"/>
  <outline>
    <contour>
      <point x="623" y="770" type="curve" smooth="yes" name="hr01"/>
      <point x="565" y="770"/>
      <point x="519" y="748"/>
      <point x="484" y="705" type="curve"/>
      <point x="452" y="747"/>
      <point x="405" y="770"/>
      <point x="340" y="770" type="curve" smooth="yes"/>
      <point x="254" y="770"/>
      <point x="184" y="706"/>
      <point x="148" y="595" type="curve"/>
      <point x="148" y="750" type="line"/>
      <point x="123" y="750" type="line"/>
      <point x="123" y="397" type="line"/>
      <point x="148" y="397" type="line"/>
      <point x="148" y="419" type="line" smooth="yes"/>
      <point x="148" y="632"/>
      <point x="239" y="743"/>
      <point x="338" y="743" type="curve" smooth="yes"/>
      <point x="390" y="743"/>
      <point x="403" y="688"/>
      <point x="403" y="547" type="curve" smooth="yes"/>
      <point x="403" y="503" type="line" smooth="yes"/>
      <point x="403" y="458"/>
      <point x="358" y="431"/>
      <point x="313" y="412" type="curve" smooth="yes"/>
      <point x="200" y="364"/>
      <point x="98" y="285"/>
      <point x="98" y="156" type="curve" smooth="yes" name="hr02"/>
      <point x="98" y="58"/>
      <point x="150" y="-20"/>
      <point x="276" y="-20" type="curve" smooth="yes"/>
      <point x="374" y="-20"/>
      <point x="413" y="50"/>
      <point x="423" y="179" type="curve"/>
      <point x="457" y="49"/>
      <point x="534" y="-20"/>
      <point x="658" y="-20" type="curve" smooth="yes" name="hr03"/>
      <point x="781" y="-20"/>
      <point x="852" y="86"/>
      <point x="852" y="282" type="curve"/>
      <point x="825" y="282" type="line"/>
      <point x="825" y="96"/>
      <point x="762" y="9"/>
      <point x="658" y="9" type="curve" smooth="yes"/>
      <point x="576" y="9"/>
      <point x="543" y="115"/>
      <point x="542" y="351" type="curve"/>
      <point x="852" y="351" type="line"/>
      <point x="854" y="621"/>
      <point x="779" y="770"/>
    </contour>
    <contour>
      <point x="624" y="743" type="curve" smooth="yes"/>
      <point x="686" y="743"/>
      <point x="712" y="632"/>
      <point x="712" y="378" type="curve"/>
      <point x="542" y="378" type="line"/>
      <point x="543" y="633"/>
      <point x="567" y="743"/>
    </contour>
    <contour>
      <point x="238" y="202" type="curve" smooth="yes" name="hr04"/>
      <point x="238" y="324"/>
      <point x="251" y="357"/>
      <point x="322" y="387" type="curve" smooth="yes"/>
      <point x="362" y="404"/>
      <point x="387" y="419"/>
      <point x="403" y="440" type="curve"/>
      <point x="403" y="419" type="line"/>
      <point x="402" y="402"/>
      <point x="402" y="385"/>
      <point x="402" y="368" type="curve" smooth="yes"/>
      <point x="402" y="352"/>
      <point x="402" y="336"/>
      <point x="403" y="321" type="curve"/>
      <point x="403" y="266" type="line" smooth="yes"/>
      <point x="403" y="100"/>
      <point x="374" y="19"/>
      <point x="306" y="19" type="curve" smooth="yes"/>
      <point x="248" y="19"/>
      <point x="238" y="92"/>
    </contour>
  </outline>
</glyph>
<glyph name="oe" format="2">
  <advance width="930"/>
  <unicode hex="0153"/>
  <outline>
    <contour>
      <point x="623" y="770" type="curve" smooth="yes" name="hr00"/>
      <point x="558" y="770"/>
      <point x="507" y="742"/>
      <point x="471" y="688" type="curve"/>
      <point x="433" y="742"/>
      <point x="379" y="770"/>
      <point x="311" y="770" type="curve" smooth="yes"/>
      <point x="159" y="770"/>
      <point x="82" y="627"/>
      <point x="82" y="368" type="curve" smooth="yes"/>
      <point x="82" y="117"/>
      <point x="161" y="-20"/>
      <point x="311" y="-20" type="curve" smooth="yes"/>
      <point x="381" y="-20"/>
      <point x="435" y="9"/>
      <point x="474" y="66" type="curve"/>
      <point x="516" y="9"/>
      <point x="577" y="-20"/>
      <point x="658" y="-20" type="curve" smooth="yes"/>
      <point x="781" y="-20"/>
      <point x="852" y="86"/>
      <point x="852" y="282" type="curve"/>
      <point x="825" y="282" type="line"/>
      <point x="825" y="96"/>
      <point x="762" y="9"/>
      <point x="658" y="9" type="curve" smooth="yes"/>
      <point x="576" y="9"/>
      <point x="543" y="115"/>
      <point x="542" y="351" type="curve"/>
      <point x="852" y="351" type="line"/>
      <point x="854" y="621"/>
      <point x="779" y="770"/>
    </contour>
    <contour>
      <point x="624" y="743" type="curve" smooth="yes"/>
      <point x="686" y="743"/>
      <point x="712" y="632"/>
      <point x="712" y="378" type="curve"/>
      <point x="542" y="378" type="line"/>
      <point x="543" y="633"/>
      <point x="567" y="743"/>
    </contour>
    <contour>
      <point x="311" y="743" type="curve" smooth="yes"/>
      <point x="374" y="743"/>
      <point x="402" y="630"/>
      <point x="402" y="367" type="curve" smooth="yes"/>
      <point x="402" y="120"/>
      <point x="373" y="7"/>
      <point x="311" y="7" type="curve" smooth="yes"/>
      <point x="250" y="7"/>
      <point x="222" y="120"/>
      <point x="222" y="367" type="curve" smooth="yes"/>
      <point x="222" y="630"/>
      <point x="249" y="743"/>
    </contour>
  </outline>
</glyph>
<glyph name="dotlessj" format="2">
  <advance width="930"/>
  <unicode hex="0237"/>
  <outline>
    <contour>
      <point x="330" y="590" type="line" name="hr00"/>
      <point x="330" y="563" type="line"/>
      <point x="649" y="563" type="line"/>
      <point x="649" y="562" type="line"/>
      <point x="627" y="374"/>
      <point x="91" y="457"/>
      <point x="91" y="192" type="curve" smooth="yes"/>
      <point x="91" y="57"/>
      <point x="219" y="-20"/>
      <point x="427" y="-20" type="curve" smooth="yes"/>
      <point x="672" y="-20"/>
      <point x="777" y="84"/>
      <point x="777" y="297" type="curve" smooth="yes"/>
      <point x="777" y="590" type="line"/>
    </contour>
    <contour>
      <point x="118" y="192" type="curve" smooth="yes"/>
      <point x="118" y="410"/>
      <point x="570" y="362"/>
      <point x="649" y="500" type="curve"/>
      <point x="649" y="297" type="line" smooth="yes"/>
      <point x="649" y="79"/>
      <point x="611" y="7"/>
      <point x="425" y="7" type="curve" smooth="yes"/>
      <point x="257" y="7"/>
      <point x="118" y="60"/>
    </contour>
  </outline>
</glyph>
<glyph name="breve" format="2">
  <advance width="560"/>
  <unicode hex="02D8"/>
  <outline>
    <contour>
      <point x="452" y="903" type="line" name="hr00"/>
      <point x="452" y="862"/>
      <point x="429" y="837"/>
      <point x="279" y="837" type="curve" smooth="yes"/>
      <point x="131" y="837"/>
      <point x="108" y="862"/>
      <point x="108" y="903" type="curve"/>
      <point x="81" y="903" type="line"/>
      <point x="81" y="831"/>
      <point x="118" y="800"/>
      <point x="280" y="800" type="curve" smooth="yes"/>
      <point x="442" y="800"/>
      <point x="479" y="831"/>
      <point x="479" y="903" type="curve"/>
    </contour>
  </outline>
</glyph>
<glyph name="ring" format="2">
  <advance width="560"/>
  <unicode hex="02DA"/>
  <outline>
    <contour>
      <point x="479" y="853" type="curve" smooth="yes" name="hr00"/>
      <point x="479" y="890"/>
      <point x="442" y="906"/>
      <point x="280" y="906" type="curve" smooth="yes"/>
      <point x="118" y="906"/>
      <point x="81" y="890"/>
      <point x="81" y="853" type="curve" smooth="yes"/>
      <point x="81" y="816"/>
      <point x="118" y="800"/>
      <point x="280" y="800" type="curve" smooth="yes"/>
      <point x="442" y="800"/>
      <point x="479" y="816"/>
    </contour>
    <contour>
      <point x="108" y="853" type="curve" smooth="yes"/>
      <point x="108" y="869"/>
      <point x="131" y="879"/>
      <point x="279" y="879" type="curve" smooth="yes"/>
      <point x="429" y="879"/>
      <point x="452" y="869"/>
      <point x="452" y="853" type="curve" smooth="yes"/>
      <point x="452" y="837"/>
      <point x="429" y="827"/>
      <point x="279" y="827" type="curve" smooth="yes"/>
      <point x="131" y="827"/>
      <point x="108" y="837"/>
    </contour>
  </outline>
</glyph>
<glyph name="tilde" format="2">
  <advance width="930"/>
  <unicode hex="02DC"/>
  <outline>
    <contour>
      <point x="365" y="896" type="curve" smooth="yes" name="hr01"/>
      <point x="299" y="896"/>
      <point x="272" y="861"/>
      <point x="272" y="800" type="curve"/>
      <point x="295" y="800" type="line"/>
      <point x="295" y="838"/>
      <point x="332" y="852"/>
      <point x="356" y="852" type="curve" smooth="yes"/>
      <point x="423" y="852"/>
      <point x="500" y="800"/>
      <point x="565" y="800" type="curve" smooth="yes" name="hr02"/>
      <point x="631" y="800"/>
      <point x="658" y="835"/>
      <point x="658" y="896" type="curve"/>
      <point x="635" y="896" type="line"/>
      <point x="635" y="858"/>
      <point x="598" y="844"/>
      <point x="574" y="844" type="curve" smooth="yes"/>
      <point x="521" y="844"/>
      <point x="434" y="896"/>
    </contour>
  </outline>
</glyph>
<glyph name="Gamma" format="2">
  <advance width="930"/>
  <unicode hex="0393"/>
  <outline>
    <contour>
      <point x="90" y="725" type="line" name="hr00"/>
      <point x="194" y="725" type="line"/>
      <point x="194" y="25" type="line"/>
      <point x="90" y="25" type="line"/>
      <point x="90" y="0" type="line"/>
      <point x="510" y="0" type="line"/>
      <point x="510" y="25" type="line"/>
      <point x="322" y="25" type="line"/>
      <point x="322" y="723" type="line"/>
      <point x="608" y="723" type="line" smooth="yes"/>
      <point x="752" y="723"/>
      <point x="785" y="690"/>
      <point x="785" y="556" type="curve" smooth="yes"/>
      <point x="785" y="411" type="line"/>
      <point x="810" y="411" type="line"/>
      <point x="810" y="750" type="line"/>
      <point x="90" y="750" type="line"/>
    </contour>
  </outline>
</glyph>
<glyph name="Sigma" format="2">
  <advance width="930"/>
  <unicode hex="03A3"/>
  <outline>
    <contour>
      <point x="50" y="725" type="line" name="hr00"/>
      <point x="187" y="725" type="line"/>
      <point x="139" y="747" type="line"/>
      <point x="425" y="375" type="line"/>
      <point x="139" y="3" type="line"/>
      <point x="187" y="25" type="line"/>
      <point x="50" y="25" type="line"/>
      <point x="50" y="0" type="line"/>
      <point x="801" y="0" type="line"/>
      <point x="801" y="330" type="line"/>
      <point x="776" y="330" type="line"/>
      <point x="776" y="194" type="line" smooth="yes"/>
      <point x="776" y="60"/>
      <point x="743" y="27"/>
      <point x="599" y="27" type="curve" smooth="yes"/>
      <point x="317" y="27" type="line"/>
      <point x="583" y="370" type="line"/>
      <point x="583" y="380" type="line"/>
      <point x="317" y="723" type="line"/>
      <point x="599" y="723" type="line" smooth="yes"/>
      <point x="743" y="723"/>
      <point x="776" y="690"/>
      <point x="776" y="556" type="curve" smooth="yes"/>
      <point x="776" y="430" type="line"/>
      <point x="801" y="430" type="line"/>
      <point x="801" y="750" type="line"/>
      <point x="50" y="750" type="line"/>
    </contour>
  </outline>
</glyph>
<glyph name="zeta" format="2">
  <advance width="930"/>
  <unicode hex="03B6"/>
  <guideline x="198" y="510" angle="0" identifier="cHRyTFAJ3p"/>
  <outline>
    <contour>
      <point x="454" y="7" type="curve" smooth="yes" name="hr00"/>
      <point x="275" y="7"/>
      <point x="171" y="76"/>
      <point x="171" y="271" type="curve" smooth="yes"/>
      <point x="171" y="303" type="line"/>
      <point x="144" y="303" type="line"/>
      <point x="144" y="269" type="line" smooth="yes"/>
      <point x="144" y="63"/>
      <point x="257" y="-20"/>
      <point x="457" y="-20" type="curve" smooth="yes"/>
      <point x="598" y="-20"/>
      <point x="791" y="24"/>
      <point x="791" y="186" type="curve" smooth="yes"/>
      <point x="791" y="370"/>
      <point x="456" y="401"/>
      <point x="456" y="548" type="curve" smooth="yes"/>
      <point x="456" y="666"/>
      <point x="572" y="723"/>
      <point x="791" y="723" type="curve"/>
      <point x="791" y="750" type="line"/>
      <point x="144" y="750" type="line"/>
      <point x="144" y="723" type="line"/>
      <point x="625" y="723" type="line"/>
      <point x="624" y="730" type="line"/>
      <point x="454" y="704"/>
      <point x="325" y="632"/>
      <point x="325" y="509" type="curve" smooth="yes"/>
      <point x="325" y="324"/>
      <point x="667" y="294"/>
      <point x="667" y="140" type="curve" smooth="yes"/>
      <point x="667" y="43"/>
      <point x="565" y="7"/>
    </contour>
    <contour>
      <point x="755" y="750" type="line"/>
      <point x="144" y="750" type="line"/>
      <point x="144" y="460" type="line"/>
      <point x="170" y="460" type="line"/>
      <point x="170" y="556" type="line" smooth="yes"/>
      <point x="170" y="690"/>
      <point x="203" y="723"/>
      <point x="346" y="723" type="curve"/>
    </contour>
  </outline>
</glyph>
<glyph name="kappa" format="2">
  <advance width="930"/>
  <unicode hex="03BA"/>
  <outline>
    <contour>
      <point x="322" y="386" type="line" name="hr00"/>
      <point x="322" y="724" type="line"/>
      <point x="448" y="724" type="line"/>
      <point x="448" y="750" type="line"/>
      <point x="90" y="750" type="line"/>
      <point x="90" y="724" type="line"/>
      <point x="194" y="724" type="line"/>
      <point x="194" y="25" type="line"/>
      <point x="90" y="25" type="line"/>
      <point x="90" y="0" type="line"/>
      <point x="448" y="0" type="line"/>
      <point x="448" y="25" type="line"/>
      <point x="322" y="25" type="line"/>
      <point x="322" y="359" type="line"/>
      <point x="415" y="359" type="line" smooth="yes"/>
      <point x="628" y="359"/>
      <point x="451" y="-20"/>
      <point x="725" y="-20" type="curve" smooth="yes"/>
      <point x="809" y="-20"/>
      <point x="856" y="19"/>
      <point x="856" y="103" type="curve" smooth="yes"/>
      <point x="856" y="210" type="line"/>
      <point x="831" y="210" type="line"/>
      <point x="831" y="103" type="line" smooth="yes"/>
      <point x="831" y="48"/>
      <point x="811" y="27"/>
      <point x="769" y="27" type="curve" smooth="yes"/>
      <point x="660" y="27"/>
      <point x="708" y="358"/>
      <point x="468" y="384" type="curve"/>
      <point x="484" y="617"/>
      <point x="564" y="746"/>
      <point x="684" y="746" type="curve" smooth="yes"/>
      <point x="752" y="746"/>
      <point x="831" y="681"/>
      <point x="831" y="513" type="curve" smooth="yes"/>
      <point x="831" y="384" type="line"/>
      <point x="856" y="384" type="line"/>
      <point x="856" y="513" type="line" smooth="yes"/>
      <point x="856" y="710"/>
      <point x="763" y="770"/>
      <point x="683" y="770" type="curve" smooth="yes"/>
      <point x="590" y="770"/>
      <point x="465" y="699"/>
      <point x="440" y="386" type="curve"/>
    </contour>
  </outline>
</glyph>
<glyph name="pi" format="2">
  <advance width="930"/>
  <unicode hex="03C0"/>
  <outline>
    <contour>
      <point x="322" y="725" type="line" name="hr00"/>
      <point x="608" y="725" type="line"/>
      <point x="608" y="25" type="line"/>
      <point x="494" y="25" type="line"/>
      <point x="494" y="0" type="line"/>
      <point x="840" y="0" type="line"/>
      <point x="840" y="25" type="line"/>
      <point x="736" y="25" type="line"/>
      <point x="736" y="725" type="line"/>
      <point x="840" y="725" type="line"/>
      <point x="840" y="750" type="line"/>
      <point x="90" y="750" type="line"/>
      <point x="90" y="725" type="line"/>
      <point x="194" y="725" type="line"/>
      <point x="194" y="25" type="line"/>
      <point x="90" y="25" type="line"/>
      <point x="90" y="0" type="line"/>
      <point x="436" y="0" type="line"/>
      <point x="436" y="25" type="line"/>
      <point x="322" y="25" type="line"/>
    </contour>
  </outline>
</glyph>
<glyph name="tau" format="2">
  <advance width="930"/>
  <unicode hex="03C4"/>
  <outline>
    <contour>
      <point x="840" y="259" type="curve" name="hr00"/>
      <point x="814" y="259" type="line"/>
      <point x="814" y="78"/>
      <point x="706" y="7"/>
      <point x="614" y="7" type="curve" smooth="yes"/>
      <point x="473" y="7"/>
      <point x="430" y="84"/>
      <point x="430" y="296" type="curve" smooth="yes"/>
      <point x="430" y="723" type="line"/>
      <point x="840" y="723" type="line"/>
      <point x="840" y="750" type="line"/>
      <point x="65" y="750" type="line"/>
      <point x="65" y="723" type="line"/>
      <point x="303" y="723" type="line"/>
      <point x="303" y="296" type="line" smooth="yes"/>
      <point x="303" y="88"/>
      <point x="394" y="-20"/>
      <point x="588" y="-20" type="curve" smooth="yes"/>
      <point x="721" y="-20"/>
      <point x="840" y="54"/>
    </contour>
  </outline>
</glyph>
<glyph name="phi" format="2">
  <advance width="930"/>
  <unicode hex="03C6"/>
  <outline>
    <contour>
      <point x="401" y="25" type="line" name="hr00"/>
      <point x="184" y="25" type="line"/>
      <point x="184" y="0" type="line"/>
      <point x="746" y="0" type="line"/>
      <point x="746" y="25" type="line"/>
      <point x="529" y="25" type="line"/>
      <point x="529" y="180" type="line"/>
      <point x="544" y="142"/>
      <point x="583" y="91"/>
      <point x="665" y="91" type="curve" smooth="yes"/>
      <point x="797" y="91"/>
      <point x="882" y="174"/>
      <point x="882" y="376" type="curve" smooth="yes"/>
      <point x="882" y="558"/>
      <point x="797" y="662"/>
      <point x="665" y="662" type="curve" smooth="yes"/>
      <point x="612" y="662"/>
      <point x="555" y="632"/>
      <point x="529" y="588" type="curve"/>
      <point x="529" y="725" type="line"/>
      <point x="746" y="725" type="line"/>
      <point x="746" y="750" type="line"/>
      <point x="184" y="750" type="line"/>
      <point x="184" y="725" type="line"/>
      <point x="401" y="725" type="line"/>
      <point x="401" y="588" type="line"/>
      <point x="375" y="632"/>
      <point x="317" y="662"/>
      <point x="265" y="662" type="curve" smooth="yes"/>
      <point x="143" y="662"/>
      <point x="48" y="558"/>
      <point x="48" y="376" type="curve" smooth="yes"/>
      <point x="48" y="174"/>
      <point x="133" y="91"/>
      <point x="265" y="91" type="curve" smooth="yes"/>
      <point x="347" y="91"/>
      <point x="386" y="137"/>
      <point x="401" y="175" type="curve"/>
    </contour>
    <contour>
      <point x="529" y="457" type="line" smooth="yes"/>
      <point x="529" y="568"/>
      <point x="573" y="635"/>
      <point x="646" y="635" type="curve" smooth="yes"/>
      <point x="703" y="635"/>
      <point x="742" y="614"/>
      <point x="742" y="373" type="curve" smooth="yes"/>
      <point x="742" y="145"/>
      <point x="707" y="118"/>
      <point x="647" y="118" type="curve" smooth="yes"/>
      <point x="608" y="118"/>
      <point x="529" y="147"/>
      <point x="529" y="285" type="curve" smooth="yes"/>
    </contour>
    <contour>
      <point x="284" y="635" type="curve" smooth="yes"/>
      <point x="359" y="635"/>
      <point x="401" y="549"/>
      <point x="401" y="460" type="curve" smooth="yes"/>
      <point x="401" y="285" type="line" smooth="yes"/>
      <point x="401" y="147"/>
      <point x="322" y="118"/>
      <point x="283" y="118" type="curve" smooth="yes"/>
      <point x="213" y="118"/>
      <point x="188" y="145"/>
      <point x="188" y="373" type="curve" smooth="yes"/>
      <point x="188" y="604"/>
      <point x="217" y="635"/>
    </contour>
  </outline>
</glyph>
<glyph name="uni0488" format="2">
  <advance width="930"/>
  <unicode hex="0488"/>
  <outline>
    <contour>
      <point x="537" y="605" type="line" name="hr00"/>
      <point x="558" y="625" type="line"/>
      <point x="483" y="700" type="line"/>
      <point x="557" y="774" type="line"/>
      <point x="537" y="794" type="line"/>
      <point x="463" y="720" type="line"/>
      <point x="388" y="795" type="line"/>
      <point x="368" y="775" type="line"/>
      <point x="443" y="700" type="line"/>
      <point x="367" y="625" type="line"/>
      <point x="387" y="604" type="line"/>
      <point x="463" y="680" type="line"/>
    </contour>
    <contour>
      <point x="323" y="514" type="line"/>
      <point x="344" y="534" type="line"/>
      <point x="269" y="609" type="line"/>
      <point x="343" y="683" type="line"/>
      <point x="323" y="703" type="line"/>
      <point x="249" y="629" type="line"/>
      <point x="174" y="704" type="line"/>
      <point x="154" y="684" type="line"/>
      <point x="229" y="609" type="line"/>
      <point x="153" y="534" type="line"/>
      <point x="173" y="513" type="line"/>
      <point x="249" y="589" type="line"/>
    </contour>
    <contour>
      <point x="752" y="514" type="line"/>
      <point x="773" y="534" type="line"/>
      <point x="698" y="609" type="line"/>
      <point x="772" y="683" type="line"/>
      <point x="752" y="703" type="line"/>
      <point x="678" y="629" type="line"/>
      <point x="603" y="704" type="line"/>
      <point x="583" y="684" type="line"/>
      <point x="658" y="609" type="line"/>
      <point x="582" y="534" type="line"/>
      <point x="602" y="513" type="line"/>
      <point x="678" y="589" type="line"/>
    </contour>
    <contour>
      <point x="845" y="298" type="line"/>
      <point x="866" y="318" type="line"/>
      <point x="791" y="393" type="line"/>
      <point x="865" y="467" type="line"/>
      <point x="845" y="487" type="line"/>
      <point x="771" y="413" type="line"/>
      <point x="696" y="488" type="line"/>
      <point x="676" y="468" type="line"/>
      <point x="751" y="393" type="line"/>
      <point x="675" y="318" type="line"/>
      <point x="695" y="297" type="line"/>
      <point x="771" y="373" type="line"/>
    </contour>
    <contour>
      <point x="233" y="298" type="line"/>
      <point x="254" y="318" type="line"/>
      <point x="179" y="393" type="line"/>
      <point x="253" y="467" type="line"/>
      <point x="233" y="487" type="line"/>
      <point x="159" y="413" type="line"/>
      <point x="84" y="488" type="line"/>
      <point x="64" y="468" type="line"/>
      <point x="139" y="393" type="line"/>
      <point x="63" y="318" type="line"/>
      <point x="83" y="297" type="line"/>
      <point x="159" y="373" type="line"/>
    </contour>
    <contour>
      <point x="323" y="84" type="line"/>
      <point x="344" y="104" type="line"/>
      <point x="269" y="179" type="line"/>
      <point x="343" y="253" type="line"/>
      <point x="323" y="273" type="line"/>
      <point x="249" y="199" type="line"/>
      <point x="174" y="274" type="line"/>
      <point x="154" y="254" type="line"/>
      <point x="229" y="179" type="line"/>
      <point x="153" y="104" type="line"/>
      <point x="173" y="83" type="line"/>
      <point x="249" y="159" type="line"/>
    </contour>
    <contour>
      <point x="752" y="84" type="line"/>
      <point x="773" y="104" type="line"/>
      <point x="698" y="179" type="line"/>
      <point x="772" y="253" type="line"/>
      <point x="752" y="273" type="line"/>
      <point x="678" y="199" type="line"/>
      <point x="603" y="274" type="line"/>
      <point x="583" y="254" type="line"/>
      <point x="658" y="179" type="line"/>
      <point x="582" y="104" type="line"/>
      <point x="602" y="83" type="line"/>
      <point x="678" y="159" type="line"/>
    </contour>
    <contour>
      <point x="539" y="-3" type="line"/>
      <point x="560" y="17" type="line"/>
      <point x="485" y="92" type="line"/>
      <point x="559" y="166" type="line"/>
      <point x="539" y="186" type="line"/>
      <point x="465" y="112" type="line"/>
      <point x="390" y="187" type="line"/>
      <point x="370" y="167" type="line"/>
      <point x="445" y="92" type="line"/>
      <point x="369" y="17" type="line"/>
      <point x="389" y="-4" type="line"/>
      <point x="465" y="72" type="line"/>
    </contour>
  </outline>
</glyph>
<glyph name="emdash" format="2">
  <advance width="930"/>
  <unicode hex="2014"/>
  <outline>
    <contour>
      <point x="845" y="425" type="line" name="hr00"/>
      <point x="85" y="425" type="line"/>
      <point x="85" y="398" type="line"/>
      <point x="845" y="398" type="line"/>
    </contour>
  </outline>
</glyph>
<glyph name="quotesinglbase" format="2">
  <advance width="465"/>
  <unicode hex="201A"/>
  <outline>
    <contour>
      <point x="66" y="243" type="line" name="hr00"/>
      <point x="144" y="243" type="line"/>
      <point x="65" y="-43" type="line"/>
      <point x="91" y="-50" type="line"/>
      <point x="173" y="243" type="line"/>
      <point x="173" y="270" type="line"/>
      <point x="66" y="270" type="line"/>
    </contour>
  </outline>
</glyph>
<glyph name="quotedblbase" format="2">
  <advance width="465"/>
  <unicode hex="201E"/>
  <outline>
    <contour>
      <point x="66" y="243" type="line" name="hr00"/>
      <point x="144" y="243" type="line"/>
      <point x="65" y="-43" type="line"/>
      <point x="91" y="-50" type="line"/>
      <point x="173" y="243" type="line"/>
      <point x="173" y="270" type="line"/>
      <point x="66" y="270" type="line"/>
    </contour>
    <contour>
      <point x="228" y="243" type="line"/>
      <point x="306" y="243" type="line"/>
      <point x="227" y="-43" type="line"/>
      <point x="253" y="-50" type="line"/>
      <point x="335" y="243" type="line"/>
      <point x="335" y="270" type="line"/>
      <point x="228" y="270" type="line"/>
    </contour>
  </outline>
</glyph>
<glyph name="Euro" format="2">
  <advance width="930"/>
  <unicode hex="20AC"/>
  <outline>
    <contour>
      <point x="516" y="9" type="curve" smooth="yes" name="hr01"/>
      <point x="359" y="9"/>
      <point x="297" y="86"/>
      <point x="283" y="275" type="curve"/>
      <point x="629" y="346" type="line"/>
      <point x="629" y="373" type="line"/>
      <point x="281" y="302" type="line"/>
      <point x="280" y="323"/>
      <point x="280" y="344"/>
      <point x="280" y="367" type="curve" smooth="yes"/>
      <point x="280" y="374"/>
      <point x="280" y="381"/>
      <point x="280" y="387" type="curve"/>
      <point x="630" y="458" type="line"/>
      <point x="630" y="485" type="line"/>
      <point x="281" y="414" type="line"/>
      <point x="287" y="652"/>
      <point x="343" y="743"/>
      <point x="511" y="743" type="curve" smooth="yes"/>
      <point x="703" y="743"/>
      <point x="795" y="629"/>
      <point x="795" y="421" type="curve" name="hr02"/>
      <point x="820" y="421" type="line"/>
      <point x="820" y="750" type="line"/>
      <point x="795" y="750" type="line"/>
      <point x="795" y="585" type="line"/>
      <point x="752" y="704"/>
      <point x="656" y="770"/>
      <point x="510" y="770" type="curve" smooth="yes"/>
      <point x="261" y="770"/>
      <point x="145" y="634"/>
      <point x="140" y="386" type="curve"/>
      <point x="49" y="367" type="line"/>
      <point x="49" y="340" type="line"/>
      <point x="140" y="358" type="line"/>
      <point x="140" y="329"/>
      <point x="142" y="301"/>
      <point x="146" y="275" type="curve"/>
      <point x="49" y="255" type="line"/>
      <point x="49" y="227" type="line"/>
      <point x="151" y="248" type="line"/>
      <point x="185" y="73"/>
      <point x="304" y="-20"/>
      <point x="516" y="-20" type="curve" smooth="yes"/>
      <point x="666" y="-20"/>
      <point x="770" y="42"/>
      <point x="815" y="160" type="curve" name="hr03"/>
      <point x="815" y="1" type="line"/>
      <point x="840" y="1" type="line"/>
      <point x="840" y="311" type="line"/>
      <point x="815" y="311" type="line"/>
      <point x="815" y="105"/>
      <point x="702" y="9"/>
    </contour>
  </outline>
</glyph>
<glyph name="squareblack" format="2">
  <advance width="930"/>
  <unicode hex="25A0"/>
  <outline>
    <contour>
      <point x="323" y="538" type="line"/>
      <point x="323" y="247" type="line"/>
      <point x="607" y="247" type="line"/>
      <point x="607" y="538" type="line"/>
    </contour>
  </outline>
</glyph>
<glyph name="gmtr:diamondblack" format="2">
  <advance width="930"/>
  <unicode hex="25C6"/>
  <outline>
    <contour>
      <point x="465" y="95" type="line"/>
      <point x="767" y="398" type="line"/>
      <point x="465" y="699" type="line"/>
      <point x="163" y="398" type="line"/>
    </contour>
  </outline>
</glyph>
<glyph name="uniA66E" format="2">
  <advance width="930"/>
  <unicode hex="A66E"/>
  <outline>
    <contour>
      <point x="371" y="658" type="curve" name="hr01"/>
      <point x="388" y="658" type="line"/>
      <point x="391" y="700"/>
      <point x="428" y="713"/>
      <point x="474" y="713" type="curve" smooth="yes"/>
      <point x="512" y="713"/>
      <point x="555" y="700"/>
      <point x="558" y="658" type="curve"/>
      <point x="577" y="658" type="line"/>
      <point x="572" y="723"/>
      <point x="537" y="768"/>
      <point x="473" y="768" type="curve" smooth="yes"/>
      <point x="406" y="768"/>
      <point x="374" y="725"/>
    </contour>
    <contour>
      <point x="618" y="519" type="curve"/>
      <point x="635" y="519" type="line"/>
      <point x="638" y="561"/>
      <point x="675" y="574"/>
      <point x="721" y="574" type="curve" smooth="yes"/>
      <point x="759" y="574"/>
      <point x="802" y="561"/>
      <point x="805" y="519" type="curve"/>
      <point x="824" y="519" type="line"/>
      <point x="819" y="584"/>
      <point x="784" y="629"/>
      <point x="720" y="629" type="curve" smooth="yes"/>
      <point x="653" y="629"/>
      <point x="621" y="586"/>
    </contour>
    <contour>
      <point x="121" y="517" type="curve" name="hr02"/>
      <point x="138" y="517" type="line"/>
      <point x="141" y="559"/>
      <point x="178" y="572"/>
      <point x="224" y="572" type="curve" smooth="yes"/>
      <point x="262" y="572"/>
      <point x="305" y="559"/>
      <point x="308" y="517" type="curve"/>
      <point x="327" y="517" type="line"/>
      <point x="322" y="582"/>
      <point x="287" y="627"/>
      <point x="223" y="627" type="curve" smooth="yes"/>
      <point x="156" y="627"/>
      <point x="124" y="584"/>
    </contour>
    <contour>
      <point x="49" y="324" type="curve"/>
      <point x="66" y="324" type="line"/>
      <point x="69" y="366"/>
      <point x="106" y="379"/>
      <point x="152" y="379" type="curve" smooth="yes"/>
      <point x="190" y="379"/>
      <point x="233" y="366"/>
      <point x="236" y="324" type="curve"/>
      <point x="255" y="324" type="line"/>
      <point x="250" y="389"/>
      <point x="215" y="434"/>
      <point x="151" y="434" type="curve" smooth="yes"/>
      <point x="84" y="434"/>
      <point x="52" y="391"/>
    </contour>
    <contour>
      <point x="687" y="322" type="curve" name="hr03"/>
      <point x="704" y="322" type="line"/>
      <point x="707" y="364"/>
      <point x="744" y="377"/>
      <point x="790" y="377" type="curve" smooth="yes"/>
      <point x="828" y="377"/>
      <point x="871" y="364"/>
      <point x="874" y="322" type="curve"/>
      <point x="893" y="322" type="line"/>
      <point x="888" y="387"/>
      <point x="853" y="432"/>
      <point x="789" y="432" type="curve" smooth="yes"/>
      <point x="722" y="432"/>
      <point x="690" y="389"/>
    </contour>
    <contour>
      <point x="119" y="119" type="curve"/>
      <point x="136" y="119" type="line"/>
      <point x="139" y="161"/>
      <point x="176" y="174"/>
      <point x="222" y="174" type="curve" smooth="yes"/>
      <point x="260" y="174"/>
      <point x="303" y="161"/>
      <point x="306" y="119" type="curve"/>
      <point x="325" y="119" type="line"/>
      <point x="320" y="184"/>
      <point x="285" y="229"/>
      <point x="221" y="229" type="curve" smooth="yes"/>
      <point x="154" y="229"/>
      <point x="122" y="186"/>
    </contour>
    <contour>
      <point x="618" y="119" type="curve"/>
      <point x="635" y="119" type="line"/>
      <point x="638" y="161"/>
      <point x="675" y="174"/>
      <point x="721" y="174" type="curve" smooth="yes"/>
      <point x="759" y="174"/>
      <point x="802" y="161"/>
      <point x="805" y="119" type="curve"/>
      <point x="824" y="119" type="line"/>
      <point x="819" y="184"/>
      <point x="784" y="229"/>
      <point x="720" y="229" type="curve" smooth="yes"/>
      <point x="653" y="229"/>
      <point x="621" y="186"/>
    </contour>
    <contour>
      <point x="371" y="-18" type="curve"/>
      <point x="388" y="-18" type="line"/>
      <point x="391" y="24"/>
      <point x="428" y="37"/>
      <point x="474" y="37" type="curve" smooth="yes"/>
      <point x="512" y="37"/>
      <point x="555" y="24"/>
      <point x="558" y="-18" type="curve"/>
      <point x="577" y="-18" type="line"/>
      <point x="572" y="47"/>
      <point x="537" y="92"/>
      <point x="473" y="92" type="curve" smooth="yes"/>
      <point x="406" y="92"/>
      <point x="374" y="49"/>
    </contour>
  </outline>
</glyph>
<glyph name="uniA69A" format="2">
  <advance width="930"/>
  <unicode hex="A69A"/>
  <outline>
    <contour>
      <point x="449" y="584" type="line" name="hr01"/>
      <point x="482" y="584" type="line"/>
      <point x="482" y="676" type="line"/>
      <point x="584" y="676" type="line"/>
      <point x="584" y="703" type="line"/>
      <point x="482" y="703" type="line"/>
      <point x="482" y="793" type="line"/>
      <point x="449" y="793" type="line"/>
      <point x="449" y="703" type="line"/>
      <point x="347" y="703" type="line"/>
      <point x="347" y="676" type="line"/>
      <point x="449" y="676" type="line"/>
    </contour>
    <contour>
      <point x="83" y="549" type="line" name="hr02"/>
      <point x="302" y="549" type="line"/>
      <point x="302" y="576" type="line"/>
      <point x="83" y="576" type="line"/>
    </contour>
    <contour>
      <point x="628" y="549" type="line"/>
      <point x="848" y="549" type="line"/>
      <point x="848" y="576" type="line"/>
      <point x="628" y="576" type="line"/>
    </contour>
    <contour>
      <point x="83" y="368" type="line"/>
      <point x="302" y="368" type="line"/>
      <point x="302" y="395" type="line"/>
      <point x="83" y="395" type="line"/>
    </contour>
    <contour>
      <point x="628" y="368" type="line"/>
      <point x="848" y="368" type="line"/>
      <point x="848" y="395" type="line"/>
      <point x="628" y="395" type="line"/>
    </contour>
    <contour>
      <point x="83" y="188" type="line"/>
      <point x="302" y="188" type="line"/>
      <point x="302" y="215" type="line"/>
      <point x="83" y="215" type="line"/>
    </contour>
    <contour>
      <point x="628" y="188" type="line"/>
      <point x="848" y="188" type="line"/>
      <point x="848" y="215" type="line"/>
      <point x="628" y="215" type="line"/>
    </contour>
    <contour>
      <point x="312" y="-41" type="line" name="hr03"/>
      <point x="345" y="-41" type="line"/>
      <point x="345" y="169" type="line"/>
      <point x="312" y="169" type="line"/>
    </contour>
    <contour>
      <point x="449" y="-41" type="line"/>
      <point x="482" y="-41" type="line"/>
      <point x="482" y="169" type="line"/>
      <point x="449" y="169" type="line"/>
    </contour>
    <contour>
      <point x="586" y="-41" type="line"/>
      <point x="619" y="-41" type="line"/>
      <point x="619" y="169" type="line"/>
      <point x="586" y="169" type="line"/>
    </contour>
  </outline>
</glyph>
<glyph name="bullet.006" format="2">
  <advance width="930"/>
  <unicode hex="E0BA"/>
  <outline>
    <contour>
      <point x="210" y="396" type="curve" smooth="yes" name="hr00"/>
      <point x="210" y="202"/>
      <point x="380" y="89"/>
      <point x="552" y="89" type="curve" smooth="yes"/>
      <point x="620" y="89"/>
      <point x="683" y="105"/>
      <point x="713" y="125" type="curve"/>
      <point x="710" y="139" type="line"/>
      <point x="635" y="165"/>
      <point x="552" y="270"/>
      <point x="552" y="396" type="curve" smooth="yes"/>
      <point x="552" y="522"/>
      <point x="635" y="627"/>
      <point x="710" y="654" type="curve"/>
      <point x="713" y="667" type="line"/>
      <point x="683" y="688"/>
      <point x="625" y="703"/>
      <point x="556" y="703" type="curve" smooth="yes"/>
      <point x="380" y="703"/>
      <point x="210" y="590"/>
    </contour>
    <contour>
      <point x="563" y="118" type="curve"/>
      <point x="552" y="118" type="line" smooth="yes"/>
      <point x="396" y="118"/>
      <point x="239" y="218"/>
      <point x="239" y="396" type="curve" smooth="yes"/>
      <point x="239" y="574"/>
      <point x="397" y="674"/>
      <point x="556" y="674" type="curve" smooth="yes"/>
      <point x="565" y="674" type="line"/>
      <point x="454" y="629"/>
      <point x="370" y="532"/>
      <point x="370" y="396" type="curve" smooth="yes"/>
      <point x="370" y="260"/>
      <point x="454" y="163"/>
    </contour>
  </outline>
</glyph>
<glyph name="Fam_ligne" format="2">
  <advance width="3320"/>
  <outline>
    <contour>
      <point x="2421" y="119" type="curve" name="hr01"/>
      <point x="2421" y="195" type="line"/>
      <point x="2396" y="195" type="line"/>
      <point x="2396" y="121" type="line" smooth="yes"/>
      <point x="2396" y="45"/>
      <point x="2387" y="18"/>
      <point x="2347" y="18" type="curve" smooth="yes"/>
      <point x="2321" y="18"/>
      <point x="2307" y="53"/>
      <point x="2307" y="119" type="curve" smooth="yes"/>
      <point x="2307" y="527" type="line" smooth="yes"/>
      <point x="2307" y="674"/>
      <point x="2199" y="771"/>
      <point x="1983" y="771" type="curve" smooth="yes"/>
      <point x="1821" y="771"/>
      <point x="1677" y="669"/>
      <point x="1677" y="539" type="curve" smooth="yes"/>
      <point x="1677" y="477"/>
      <point x="1704" y="426"/>
      <point x="1754" y="396" type="curve"/>
      <point x="1769" y="418" type="line"/>
      <point x="1732" y="444"/>
      <point x="1704" y="478"/>
      <point x="1704" y="539" type="curve" smooth="yes"/>
      <point x="1704" y="664"/>
      <point x="1848" y="744"/>
      <point x="1981" y="744" type="curve" smooth="yes"/>
      <point x="2129" y="744"/>
      <point x="2179" y="688"/>
      <point x="2179" y="547" type="curve" smooth="yes"/>
      <point x="2179" y="545" type="line" smooth="yes"/>
      <point x="2179" y="481"/>
      <point x="2082" y="451"/>
      <point x="1978" y="407" type="curve" smooth="yes"/>
      <point x="1837" y="348"/>
      <point x="1674" y="285"/>
      <point x="1674" y="156" type="curve" smooth="yes" name="hr02"/>
      <point x="1674" y="58"/>
      <point x="1740" y="-20"/>
      <point x="1902" y="-20" type="curve" smooth="yes"/>
      <point x="2020" y="-20"/>
      <point x="2136" y="72"/>
      <point x="2179" y="170" type="curve"/>
      <point x="2179" y="121" type="line" smooth="yes"/>
      <point x="2179" y="29"/>
      <point x="2220" y="-20"/>
      <point x="2312" y="-20" type="curve" smooth="yes"/>
      <point x="2400" y="-20"/>
      <point x="2421" y="12"/>
    </contour>
    <contour>
      <point x="2460" y="725" type="line" name="hr04"/>
      <point x="2544" y="725" type="line"/>
      <point x="2544" y="25" type="line"/>
      <point x="2460" y="25" type="line"/>
      <point x="2460" y="0" type="line"/>
      <point x="3250" y="0" type="line"/>
      <point x="3250" y="25" type="line"/>
      <point x="3168" y="25" type="line"/>
      <point x="3168" y="532" type="line" smooth="yes"/>
      <point x="3168" y="680"/>
      <point x="3113" y="770"/>
      <point x="3013" y="770" type="curve" smooth="yes" name="hr05"/>
      <point x="2956" y="770"/>
      <point x="2925" y="737"/>
      <point x="2906" y="645" type="curve"/>
      <point x="2885" y="725"/>
      <point x="2838" y="770"/>
      <point x="2770" y="770" type="curve" smooth="yes"/>
      <point x="2713" y="770"/>
      <point x="2678" y="736"/>
      <point x="2658" y="643" type="curve"/>
      <point x="2658" y="750" type="line" name="hr06"/>
      <point x="2460" y="750" type="line"/>
    </contour>
    <contour>
      <point x="1598" y="127" type="curve"/>
      <point x="1598" y="251" type="line"/>
      <point x="1571" y="251" type="line"/>
      <point x="1571" y="127" type="line" smooth="yes"/>
      <point x="1571" y="88"/>
      <point x="1560" y="62"/>
      <point x="1529" y="62" type="curve" smooth="yes"/>
      <point x="1498" y="62"/>
      <point x="1460" y="97"/>
      <point x="1360" y="210" type="curve" smooth="yes"/>
      <point x="1346" y="226" type="line"/>
      <point x="1370" y="294"/>
      <point x="1374" y="371"/>
      <point x="1374" y="437" type="curve"/>
      <point x="1538" y="437" type="line"/>
      <point x="1538" y="462" type="line"/>
      <point x="1297" y="462" type="line" name="hr07"/>
      <point x="1343" y="492"/>
      <point x="1372" y="545"/>
      <point x="1372" y="605" type="curve" smooth="yes"/>
      <point x="1372" y="713"/>
      <point x="1285" y="770"/>
      <point x="1155" y="770" type="curve" smooth="yes"/>
      <point x="1016" y="770"/>
      <point x="936" y="697"/>
      <point x="935" y="597" type="curve" smooth="yes"/>
      <point x="935" y="541"/>
      <point x="956" y="471"/>
      <point x="1014" y="407" type="curve" smooth="yes"/>
      <point x="1036" y="383" type="line"/>
      <point x="924" y="340"/>
      <point x="810" y="269"/>
      <point x="810" y="155" type="curve" smooth="yes" name="hr08"/>
      <point x="810" y="74"/>
      <point x="891" y="-20"/>
      <point x="1019" y="-20" type="curve" smooth="yes"/>
      <point x="1133" y="-20"/>
      <point x="1229" y="28"/>
      <point x="1284" y="107" type="curve"/>
      <point x="1380" y="6"/>
      <point x="1430" y="-20"/>
      <point x="1482" y="-20" type="curve" smooth="yes" name="hr09"/>
      <point x="1561" y="-20"/>
      <point x="1598" y="23"/>
    </contour>
    <contour>
      <point x="90" y="724" type="line"/>
      <point x="243" y="724" type="line" name="hr11"/>
      <point x="243" y="25" type="line"/>
      <point x="90" y="25" type="line"/>
      <point x="90" y="0" type="line"/>
      <point x="553" y="0" type="line"/>
      <point x="553" y="25" type="line"/>
      <point x="370" y="25" type="line"/>
      <point x="370" y="297" type="line"/>
      <point x="627" y="297" type="line"/>
      <point x="627" y="139" type="line"/>
      <point x="652" y="139" type="line"/>
      <point x="652" y="482" type="line"/>
      <point x="627" y="482" type="line"/>
      <point x="627" y="324" type="line"/>
      <point x="370" y="324" type="line"/>
      <point x="370" y="723" type="line" name="hr12"/>
      <point x="635" y="723" type="line" smooth="yes"/>
      <point x="779" y="723"/>
      <point x="812" y="690"/>
      <point x="812" y="556" type="curve" smooth="yes"/>
      <point x="812" y="411" type="line"/>
      <point x="837" y="411" type="line"/>
      <point x="837" y="750" type="line" name="hr13"/>
      <point x="90" y="750" type="line"/>
    </contour>
    <contour>
      <point x="1123" y="476" type="line" smooth="yes"/>
      <point x="1052" y="555"/>
      <point x="1031" y="611"/>
      <point x="1031" y="651" type="curve" smooth="yes" name="hr14"/>
      <point x="1031" y="721"/>
      <point x="1091" y="743"/>
      <point x="1160" y="743" type="curve" smooth="yes"/>
      <point x="1267" y="743"/>
      <point x="1345" y="702"/>
      <point x="1345" y="605" type="curve" smooth="yes"/>
      <point x="1345" y="531"/>
      <point x="1298" y="468"/>
      <point x="1213" y="462" type="curve"/>
      <point x="1213" y="437" type="line"/>
      <point x="1348" y="437" type="line" name="hr15"/>
      <point x="1348" y="375"/>
      <point x="1344" y="308"/>
      <point x="1326" y="249" type="curve"/>
    </contour>
    <contour>
      <point x="2670" y="452" type="line" smooth="yes"/>
      <point x="2670" y="650"/>
      <point x="2703" y="734"/>
      <point x="2744" y="734" type="curve" smooth="yes"/>
      <point x="2779" y="734"/>
      <point x="2792" y="684"/>
      <point x="2792" y="532" type="curve" smooth="yes"/>
      <point x="2792" y="25" type="line"/>
      <point x="2670" y="25" type="line"/>
    </contour>
    <contour>
      <point x="2919" y="452" type="line" smooth="yes"/>
      <point x="2919" y="649"/>
      <point x="2949" y="734"/>
      <point x="2988" y="734" type="curve" smooth="yes"/>
      <point x="3026" y="734"/>
      <point x="3041" y="685"/>
      <point x="3041" y="532" type="curve" smooth="yes"/>
      <point x="3041" y="25" type="line"/>
      <point x="2919" y="25" type="line"/>
    </contour>
    <contour>
      <point x="1814" y="202" type="curve" smooth="yes" name="hr16"/>
      <point x="1814" y="301"/>
      <point x="1866" y="331"/>
      <point x="1988" y="382" type="curve" smooth="yes"/>
      <point x="2086" y="424"/>
      <point x="2148" y="448"/>
      <point x="2179" y="484" type="curve"/>
      <point x="2179" y="266" type="line" smooth="yes"/>
      <point x="2179" y="160"/>
      <point x="2057" y="19"/>
      <point x="1932" y="19" type="curve" smooth="yes"/>
      <point x="1831" y="19"/>
      <point x="1814" y="92"/>
    </contour>
    <contour>
      <point x="950" y="176" type="curve" smooth="yes" name="hr17"/>
      <point x="950" y="295"/>
      <point x="973" y="332"/>
      <point x="1054" y="363" type="curve"/>
      <point x="1246" y="148" type="line" smooth="yes"/>
      <point x="1253" y="140"/>
      <point x="1260" y="133"/>
      <point x="1266" y="126" type="curve"/>
      <point x="1204" y="49"/>
      <point x="1144" y="16"/>
      <point x="1059" y="16" type="curve" smooth="yes"/>
      <point x="990" y="16"/>
      <point x="950" y="59"/>
    </contour>
  </outline>
</glyph>
<glyph name=".notdef" format="2">
  <advance width="1000"/>
  <outline>
    <contour>
      <point x="40" y="600" type="line" name="hr01"/>
      <point x="50" y="600" type="line"/>
      <point x="50" y="700" type="line"/>
      <point x="40" y="700" type="line"/>
    </contour>
    <contour>
      <point x="80" y="600" type="line" name="hr02"/>
      <point x="90" y="600" type="line"/>
      <point x="90" y="645" type="line"/>
      <point x="130" y="645" type="line"/>
      <point x="130" y="655" type="line"/>
      <point x="90" y="655" type="line"/>
      <point x="90" y="690" type="line"/>
      <point x="150" y="690" type="line"/>
      <point x="150" y="700" type="line"/>
      <point x="80" y="700" type="line"/>
    </contour>
    <contour>
      <point x="250" y="700" type="line"/>
      <point x="250" y="655" type="line"/>
      <point x="190" y="655" type="line"/>
      <point x="190" y="700" type="line"/>
      <point x="180" y="700" type="line"/>
      <point x="180" y="645" type="line"/>
      <point x="215" y="645" type="line" name="hr03"/>
      <point x="215" y="600" type="line"/>
      <point x="225" y="600" type="line"/>
      <point x="225" y="645" type="line"/>
      <point x="260" y="645" type="line" name="hr04"/>
      <point x="260" y="700" type="line"/>
    </contour>
    <contour>
      <point x="290" y="600" type="line"/>
      <point x="365" y="600" type="line"/>
      <point x="365" y="700" type="line"/>
      <point x="290" y="700" type="line"/>
    </contour>
    <contour>
      <point x="475" y="700" type="line"/>
      <point x="465" y="700" type="line"/>
      <point x="465" y="610" type="line"/>
      <point x="405" y="610" type="line"/>
      <point x="405" y="700" type="line"/>
      <point x="395" y="700" type="line"/>
      <point x="395" y="600" type="line"/>
      <point x="475" y="600" type="line"/>
    </contour>
    <contour>
      <point x="505" y="600" type="line"/>
      <point x="950" y="600" type="line"/>
      <point x="950" y="700" type="line"/>
      <point x="505" y="700" type="line"/>
    </contour>
    <contour>
      <point x="300" y="610" type="line"/>
      <point x="300" y="690" type="line"/>
      <point x="355" y="690" type="line" name="hr05"/>
      <point x="355" y="610" type="line"/>
    </contour>
    <contour>
      <point x="240" y="450" type="line"/>
      <point x="250" y="450" type="line"/>
      <point x="250" y="490" type="line"/>
      <point x="235" y="490" type="line" name="hr06"/>
      <point x="235" y="520" type="line" name="hr07"/>
      <point x="220" y="520" type="line" name="hr08"/>
      <point x="220" y="550" type="line"/>
      <point x="185" y="550" type="line" name="hr09"/>
      <point x="185" y="520" type="line"/>
      <point x="170" y="520" type="line" name="hr10"/>
      <point x="170" y="490" type="line" name="hr11"/>
      <point x="155" y="490" type="line" name="hr12"/>
      <point x="155" y="450" type="line"/>
      <point x="165" y="450" type="line"/>
      <point x="165" y="480" type="line"/>
      <point x="240" y="480" type="line"/>
    </contour>
    <contour>
      <point x="735" y="450" type="line" name="hr13"/>
      <point x="745" y="450" type="line"/>
      <point x="745" y="490" type="line"/>
      <point x="810" y="490" type="line"/>
      <point x="810" y="450" type="line"/>
      <point x="820" y="450" type="line"/>
      <point x="820" y="500" type="line"/>
      <point x="745" y="500" type="line"/>
      <point x="745" y="540" type="line"/>
      <point x="780" y="540" type="line" name="hr14"/>
      <point x="780" y="500" type="line"/>
      <point x="790" y="500" type="line"/>
      <point x="790" y="550" type="line"/>
      <point x="735" y="550" type="line"/>
    </contour>
    <contour>
      <point x="130" y="550" type="line"/>
      <point x="120" y="550" type="line"/>
      <point x="120" y="460" type="line" name="hr15"/>
      <point x="90" y="460" type="line" name="hr16"/>
      <point x="90" y="515" type="line"/>
      <point x="80" y="515" type="line"/>
      <point x="80" y="460" type="line"/>
      <point x="50" y="460" type="line" name="hr17"/>
      <point x="50" y="550" type="line"/>
      <point x="40" y="550" type="line"/>
      <point x="40" y="450" type="line"/>
      <point x="130" y="450" type="line"/>
    </contour>
    <contour>
      <point x="310" y="480" type="line" name="hr18"/>
      <point x="325" y="480" type="line"/>
      <point x="325" y="450" type="line" name="hr19"/>
      <point x="355" y="450" type="line"/>
      <point x="355" y="550" type="line"/>
      <point x="345" y="550" type="line"/>
      <point x="345" y="460" type="line"/>
      <point x="335" y="460" type="line"/>
      <point x="335" y="490" type="line" name="hr20"/>
      <point x="320" y="490" type="line"/>
      <point x="320" y="520" type="line"/>
      <point x="305" y="520" type="line"/>
      <point x="305" y="550" type="line"/>
      <point x="275" y="550" type="line"/>
      <point x="275" y="450" type="line"/>
      <point x="285" y="450" type="line"/>
      <point x="285" y="540" type="line"/>
      <point x="295" y="540" type="line"/>
      <point x="295" y="510" type="line"/>
      <point x="310" y="510" type="line" name="hr21"/>
    </contour>
    <contour>
      <point x="635" y="450" type="line"/>
      <point x="710" y="450" type="line"/>
      <point x="710" y="550" type="line" name="hr22"/>
      <point x="635" y="550" type="line"/>
    </contour>
    <contour>
      <point x="375" y="540" type="line"/>
      <point x="410" y="540" type="line"/>
      <point x="410" y="450" type="line"/>
      <point x="420" y="450" type="line"/>
      <point x="420" y="540" type="line"/>
      <point x="455" y="540" type="line"/>
      <point x="455" y="550" type="line"/>
      <point x="375" y="550" type="line"/>
    </contour>
    <contour>
      <point x="530" y="480" type="line"/>
      <point x="545" y="480" type="line"/>
      <point x="545" y="450" type="line"/>
      <point x="555" y="450" type="line"/>
      <point x="555" y="480" type="line"/>
      <point x="570" y="480" type="line"/>
      <point x="570" y="510" type="line"/>
      <point x="585" y="510" type="line"/>
      <point x="585" y="540" type="line"/>
      <point x="595" y="540" type="line"/>
      <point x="595" y="450" type="line"/>
      <point x="605" y="450" type="line"/>
      <point x="605" y="550" type="line"/>
      <point x="575" y="550" type="line"/>
      <point x="575" y="520" type="line"/>
      <point x="560" y="520" type="line"/>
      <point x="560" y="490" type="line"/>
      <point x="540" y="490" type="line"/>
      <point x="540" y="520" type="line"/>
      <point x="525" y="520" type="line"/>
      <point x="525" y="550" type="line"/>
      <point x="495" y="550" type="line"/>
      <point x="495" y="450" type="line"/>
      <point x="505" y="450" type="line"/>
      <point x="505" y="540" type="line"/>
      <point x="515" y="540" type="line"/>
      <point x="515" y="510" type="line"/>
      <point x="530" y="510" type="line" name="hr23"/>
    </contour>
    <contour>
      <point x="840" y="450" type="line"/>
      <point x="910" y="450" type="line"/>
      <point x="910" y="460" type="line"/>
      <point x="850" y="460" type="line"/>
      <point x="850" y="495" type="line"/>
      <point x="890" y="495" type="line"/>
      <point x="890" y="505" type="line"/>
      <point x="850" y="505" type="line"/>
      <point x="850" y="540" type="line"/>
      <point x="910" y="540" type="line"/>
      <point x="910" y="550" type="line"/>
      <point x="840" y="550" type="line"/>
    </contour>
    <contour>
      <point x="645" y="460" type="line"/>
      <point x="645" y="540" type="line"/>
      <point x="700" y="540" type="line"/>
      <point x="700" y="460" type="line"/>
    </contour>
    <contour>
      <point x="210" y="510" type="line" name="hr24"/>
      <point x="225" y="510" type="line" name="hr25"/>
      <point x="225" y="490" type="line" name="hr26"/>
      <point x="180" y="490" type="line"/>
      <point x="180" y="510" type="line" name="hr27"/>
      <point x="195" y="510" type="line" name="hr28"/>
      <point x="195" y="540" type="line"/>
      <point x="210" y="540" type="line" name="hr29"/>
    </contour>
    <contour>
      <point x="930" y="465" type="line"/>
      <point x="930" y="450" type="line"/>
      <point x="935" y="450" type="line"/>
      <point x="935" y="435" type="line"/>
      <point x="945" y="435" type="line"/>
      <point x="945" y="465" type="line"/>
    </contour>
    <contour>
      <point x="235" y="300" type="line" name="hr30"/>
      <point x="245" y="300" type="line"/>
      <point x="245" y="340" type="line"/>
      <point x="310" y="340" type="line"/>
      <point x="310" y="300" type="line"/>
      <point x="320" y="300" type="line"/>
      <point x="320" y="350" type="line"/>
      <point x="245" y="350" type="line"/>
      <point x="245" y="390" type="line"/>
      <point x="280" y="390" type="line" name="hr31"/>
      <point x="280" y="350" type="line"/>
      <point x="290" y="350" type="line"/>
      <point x="290" y="400" type="line"/>
      <point x="235" y="400" type="line"/>
    </contour>
    <contour>
      <point x="130" y="300" type="line"/>
      <point x="205" y="300" type="line" name="hr32"/>
      <point x="205" y="400" type="line"/>
      <point x="130" y="400" type="line"/>
    </contour>
    <contour>
      <point x="520" y="330" type="line" name="hr33"/>
      <point x="535" y="330" type="line"/>
      <point x="535" y="300" type="line"/>
      <point x="545" y="300" type="line"/>
      <point x="545" y="330" type="line"/>
      <point x="560" y="330" type="line"/>
      <point x="560" y="360" type="line" name="hr34"/>
      <point x="575" y="360" type="line"/>
      <point x="575" y="390" type="line" name="hr35"/>
      <point x="585" y="390" type="line"/>
      <point x="585" y="300" type="line" name="hr36"/>
      <point x="595" y="300" type="line"/>
      <point x="595" y="400" type="line"/>
      <point x="565" y="400" type="line" name="hr37"/>
      <point x="565" y="370" type="line" name="hr38"/>
      <point x="550" y="370" type="line"/>
      <point x="550" y="340" type="line" name="hr39"/>
      <point x="530" y="340" type="line"/>
      <point x="530" y="370" type="line" name="hr40"/>
      <point x="515" y="370" type="line"/>
      <point x="515" y="400" type="line" name="hr41"/>
      <point x="485" y="400" type="line" name="hr42"/>
      <point x="485" y="300" type="line"/>
      <point x="495" y="300" type="line"/>
      <point x="495" y="390" type="line"/>
      <point x="505" y="390" type="line"/>
      <point x="505" y="360" type="line" name="hr43"/>
      <point x="520" y="360" type="line" name="hr44"/>
    </contour>
    <contour>
      <point x="760" y="300" type="line"/>
      <point x="835" y="300" type="line"/>
      <point x="835" y="400" type="line" name="hr45"/>
      <point x="760" y="400" type="line"/>
    </contour>
    <contour>
      <point x="630" y="300" type="line"/>
      <point x="700" y="300" type="line" name="hr46"/>
      <point x="700" y="310" type="line"/>
      <point x="640" y="310" type="line" name="hr47"/>
      <point x="640" y="345" type="line"/>
      <point x="680" y="345" type="line"/>
      <point x="680" y="355" type="line"/>
      <point x="640" y="355" type="line"/>
      <point x="640" y="390" type="line"/>
      <point x="700" y="390" type="line"/>
      <point x="700" y="400" type="line"/>
      <point x="630" y="400" type="line"/>
    </contour>
    <contour>
      <point x="910" y="350" type="line" name="hr48"/>
      <point x="875" y="350" type="line"/>
      <point x="875" y="390" type="line"/>
      <point x="910" y="390" type="line"/>
    </contour>
    <contour>
      <point x="40" y="300" type="line" name="hr49"/>
      <point x="50" y="300" type="line"/>
      <point x="50" y="345" type="line"/>
      <point x="90" y="345" type="line"/>
      <point x="90" y="355" type="line"/>
      <point x="50" y="355" type="line"/>
      <point x="50" y="390" type="line"/>
      <point x="110" y="390" type="line"/>
      <point x="110" y="400" type="line"/>
      <point x="40" y="400" type="line"/>
    </contour>
    <contour>
      <point x="395" y="300" type="line"/>
      <point x="420" y="300" type="line" name="hr50"/>
      <point x="420" y="310" type="line"/>
      <point x="405" y="310" type="line"/>
      <point x="405" y="340" type="line" name="hr51"/>
      <point x="380" y="340" type="line"/>
      <point x="380" y="360" type="line" name="hr52"/>
      <point x="405" y="360" type="line"/>
      <point x="405" y="390" type="line" name="hr53"/>
      <point x="420" y="390" type="line"/>
      <point x="420" y="400" type="line"/>
      <point x="395" y="400" type="line"/>
      <point x="395" y="370" type="line" name="hr54"/>
      <point x="370" y="370" type="line"/>
      <point x="370" y="355" type="line" name="hr55"/>
      <point x="355" y="355" type="line"/>
      <point x="355" y="400" type="line" name="hr56"/>
      <point x="345" y="400" type="line"/>
      <point x="345" y="300" type="line"/>
      <point x="355" y="300" type="line"/>
      <point x="355" y="345" type="line" name="hr57"/>
      <point x="370" y="345" type="line"/>
      <point x="370" y="330" type="line" name="hr58"/>
      <point x="395" y="330" type="line"/>
    </contour>
    <contour>
      <point x="770" y="310" type="line" name="hr59"/>
      <point x="770" y="390" type="line"/>
      <point x="825" y="390" type="line"/>
      <point x="825" y="310" type="line"/>
    </contour>
    <contour>
      <point x="140" y="310" type="line"/>
      <point x="140" y="390" type="line"/>
      <point x="195" y="390" type="line"/>
      <point x="195" y="310" type="line"/>
    </contour>
    <contour>
      <point x="495" y="150" type="line"/>
      <point x="505" y="150" type="line"/>
      <point x="505" y="190" type="line" name="hr60"/>
      <point x="490" y="190" type="line"/>
      <point x="490" y="220" type="line" name="hr61"/>
      <point x="475" y="220" type="line"/>
      <point x="475" y="250" type="line" name="hr62"/>
      <point x="440" y="250" type="line"/>
      <point x="440" y="220" type="line" name="hr63"/>
      <point x="425" y="220" type="line"/>
      <point x="425" y="190" type="line" name="hr64"/>
      <point x="410" y="190" type="line" name="hr65"/>
      <point x="410" y="150" type="line"/>
      <point x="420" y="150" type="line"/>
      <point x="420" y="180" type="line"/>
      <point x="495" y="180" type="line"/>
    </contour>
    <contour>
      <point x="610" y="240" type="line"/>
      <point x="645" y="240" type="line"/>
      <point x="645" y="150" type="line"/>
      <point x="655" y="150" type="line"/>
      <point x="655" y="240" type="line"/>
      <point x="690" y="240" type="line"/>
      <point x="690" y="250" type="line"/>
      <point x="610" y="250" type="line"/>
    </contour>
    <contour>
      <point x="525" y="150" type="line" name="hr66"/>
      <point x="590" y="150" type="line"/>
      <point x="590" y="160" type="line"/>
      <point x="535" y="160" type="line"/>
      <point x="535" y="240" type="line"/>
      <point x="590" y="240" type="line"/>
      <point x="590" y="250" type="line"/>
      <point x="525" y="250" type="line"/>
    </contour>
    <contour>
      <point x="330" y="240" type="line"/>
      <point x="365" y="240" type="line"/>
      <point x="365" y="150" type="line"/>
      <point x="375" y="150" type="line"/>
      <point x="375" y="240" type="line"/>
      <point x="410" y="240" type="line"/>
      <point x="410" y="250" type="line"/>
      <point x="330" y="250" type="line"/>
    </contour>
    <contour>
      <point x="710" y="150" type="line"/>
      <point x="950" y="150" type="line"/>
      <point x="950" y="250" type="line"/>
      <point x="710" y="250" type="line"/>
    </contour>
    <contour>
      <point x="270" y="180" type="line" name="hr67"/>
      <point x="285" y="180" type="line"/>
      <point x="285" y="150" type="line" name="hr68"/>
      <point x="315" y="150" type="line" name="hr69"/>
      <point x="315" y="250" type="line"/>
      <point x="305" y="250" type="line"/>
      <point x="305" y="160" type="line"/>
      <point x="295" y="160" type="line"/>
      <point x="295" y="190" type="line" name="hr70"/>
      <point x="280" y="190" type="line"/>
      <point x="280" y="220" type="line" name="hr71"/>
      <point x="265" y="220" type="line"/>
      <point x="265" y="250" type="line" name="hr72"/>
      <point x="235" y="250" type="line" name="hr73"/>
      <point x="235" y="150" type="line"/>
      <point x="245" y="150" type="line"/>
      <point x="245" y="240" type="line"/>
      <point x="255" y="240" type="line"/>
      <point x="255" y="210" type="line" name="hr74"/>
      <point x="270" y="210" type="line" name="hr75"/>
    </contour>
    <contour>
      <point x="130" y="150" type="line"/>
      <point x="205" y="150" type="line"/>
      <point x="205" y="250" type="line" name="hr76"/>
      <point x="130" y="250" type="line"/>
    </contour>
    <contour>
      <point x="40" y="150" type="line"/>
      <point x="105" y="150" type="line"/>
      <point x="105" y="160" type="line"/>
      <point x="50" y="160" type="line"/>
      <point x="50" y="240" type="line"/>
      <point x="105" y="240" type="line"/>
      <point x="105" y="250" type="line"/>
      <point x="40" y="250" type="line"/>
    </contour>
    <contour>
      <point x="465" y="210" type="line" name="hr77"/>
      <point x="480" y="210" type="line"/>
      <point x="480" y="190" type="line" name="hr78"/>
      <point x="435" y="190" type="line"/>
      <point x="435" y="210" type="line" name="hr79"/>
      <point x="450" y="210" type="line"/>
      <point x="450" y="240" type="line" name="hr80"/>
      <point x="465" y="240" type="line" name="hr81"/>
    </contour>
    <contour>
      <point x="140" y="160" type="line"/>
      <point x="140" y="240" type="line"/>
      <point x="195" y="240" type="line"/>
      <point x="195" y="160" type="line"/>
    </contour>
    <contour>
      <point x="430" y="0" type="line" name="hr82"/>
      <point x="500" y="0" type="line"/>
      <point x="500" y="10" type="line"/>
      <point x="440" y="10" type="line"/>
      <point x="440" y="45" type="line"/>
      <point x="480" y="45" type="line"/>
      <point x="480" y="55" type="line"/>
      <point x="440" y="55" type="line"/>
      <point x="440" y="90" type="line"/>
      <point x="500" y="90" type="line"/>
      <point x="500" y="100" type="line"/>
      <point x="430" y="100" type="line"/>
    </contour>
    <contour>
      <point x="690" y="100" type="line"/>
      <point x="690" y="55" type="line"/>
      <point x="630" y="55" type="line"/>
      <point x="630" y="100" type="line"/>
      <point x="620" y="100" type="line"/>
      <point x="620" y="45" type="line"/>
      <point x="655" y="45" type="line" name="hr83"/>
      <point x="655" y="0" type="line"/>
      <point x="665" y="0" type="line"/>
      <point x="665" y="45" type="line"/>
      <point x="700" y="45" type="line" name="hr84"/>
      <point x="700" y="100" type="line"/>
    </contour>
    <contour>
      <point x="155" y="0" type="line"/>
      <point x="225" y="0" type="line"/>
      <point x="225" y="10" type="line"/>
      <point x="165" y="10" type="line"/>
      <point x="165" y="45" type="line"/>
      <point x="205" y="45" type="line"/>
      <point x="205" y="55" type="line"/>
      <point x="165" y="55" type="line"/>
      <point x="165" y="90" type="line"/>
      <point x="225" y="90" type="line"/>
      <point x="225" y="100" type="line"/>
      <point x="155" y="100" type="line"/>
    </contour>
    <contour>
      <point x="395" y="60" type="line" name="hr85"/>
      <point x="395" y="90" type="line" name="hr86"/>
      <point x="410" y="90" type="line"/>
      <point x="410" y="100" type="line"/>
      <point x="385" y="100" type="line"/>
      <point x="385" y="70" type="line" name="hr87"/>
      <point x="370" y="70" type="line"/>
      <point x="370" y="40" type="line" name="hr88"/>
      <point x="350" y="40" type="line"/>
      <point x="350" y="70" type="line" name="hr89"/>
      <point x="335" y="70" type="line"/>
      <point x="335" y="100" type="line" name="hr90"/>
      <point x="310" y="100" type="line"/>
      <point x="310" y="90" type="line"/>
      <point x="325" y="90" type="line"/>
      <point x="325" y="60" type="line" name="hr91"/>
      <point x="340" y="60" type="line"/>
      <point x="340" y="30" type="line" name="hr92"/>
      <point x="355" y="30" type="line"/>
      <point x="355" y="0" type="line" name="hr93"/>
      <point x="365" y="0" type="line"/>
      <point x="365" y="30" type="line" name="hr94"/>
      <point x="380" y="30" type="line"/>
      <point x="380" y="60" type="line" name="hr95"/>
    </contour>
    <contour>
      <point x="120" y="60" type="line"/>
      <point x="120" y="90" type="line" name="hr96"/>
      <point x="135" y="90" type="line"/>
      <point x="135" y="100" type="line"/>
      <point x="110" y="100" type="line"/>
      <point x="110" y="70" type="line" name="hr97"/>
      <point x="95" y="70" type="line" name="hr98"/>
      <point x="95" y="40" type="line" name="hr99"/>
      <point x="75" y="40" type="line" name="hr100"/>
      <point x="75" y="70" type="line" name="hr101"/>
      <point x="60" y="70" type="line" name="hr102"/>
      <point x="60" y="100" type="line" name="hr103"/>
      <point x="35" y="100" type="line"/>
      <point x="35" y="90" type="line"/>
      <point x="50" y="90" type="line"/>
      <point x="50" y="60" type="line" name="hr104"/>
      <point x="65" y="60" type="line" name="hr105"/>
      <point x="65" y="30" type="line" name="hr106"/>
      <point x="80" y="30" type="line" name="hr107"/>
      <point x="80" y="0" type="line"/>
      <point x="90" y="0" type="line"/>
      <point x="90" y="30" type="line"/>
      <point x="105" y="30" type="line" name="hr108"/>
      <point x="105" y="60" type="line" name="hr109"/>
    </contour>
    <contour>
      <point x="825" y="0" type="line"/>
      <point x="895" y="0" type="line"/>
      <point x="895" y="10" type="line"/>
      <point x="835" y="10" type="line"/>
      <point x="835" y="45" type="line" name="hr110"/>
      <point x="875" y="45" type="line"/>
      <point x="875" y="55" type="line"/>
      <point x="835" y="55" type="line"/>
      <point x="835" y="90" type="line"/>
      <point x="895" y="90" type="line"/>
      <point x="895" y="100" type="line"/>
      <point x="825" y="100" type="line"/>
    </contour>
    <contour>
      <point x="755" y="30" type="line" name="hr111"/>
      <point x="770" y="30" type="line"/>
      <point x="770" y="0" type="line" name="hr112"/>
      <point x="800" y="0" type="line" name="hr113"/>
      <point x="800" y="100" type="line"/>
      <point x="790" y="100" type="line"/>
      <point x="790" y="10" type="line"/>
      <point x="780" y="10" type="line"/>
      <point x="780" y="40" type="line" name="hr114"/>
      <point x="765" y="40" type="line"/>
      <point x="765" y="70" type="line" name="hr115"/>
      <point x="750" y="70" type="line"/>
      <point x="750" y="100" type="line" name="hr116"/>
      <point x="720" y="100" type="line" name="hr117"/>
      <point x="720" y="0" type="line"/>
      <point x="730" y="0" type="line"/>
      <point x="730" y="90" type="line"/>
      <point x="740" y="90" type="line"/>
      <point x="740" y="60" type="line" name="hr118"/>
      <point x="755" y="60" type="line"/>
    </contour>
    <contour>
      <point x="520" y="90" type="line" name="hr119"/>
      <point x="555" y="90" type="line"/>
      <point x="555" y="0" type="line"/>
      <point x="565" y="0" type="line"/>
      <point x="565" y="90" type="line"/>
      <point x="600" y="90" type="line"/>
      <point x="600" y="100" type="line"/>
      <point x="520" y="100" type="line"/>
    </contour>
    <contour>
      <point x="325" y="10" type="line"/>
      <point x="265" y="10" type="line"/>
      <point x="265" y="100" type="line"/>
      <point x="255" y="100" type="line"/>
      <point x="255" y="0" type="line"/>
      <point x="325" y="0" type="line" name="hr120"/>
    </contour>
    <contour>
      <point x="285" y="-150" type="line"/>
      <point x="950" y="-150" type="line"/>
      <point x="950" y="-50" type="line"/>
      <point x="285" y="-50" type="line"/>
    </contour>
    <contour>
      <point x="70" y="-150" type="line"/>
      <point x="80" y="-150" type="line"/>
      <point x="80" y="-105" type="line"/>
      <point x="120" y="-105" type="line"/>
      <point x="120" y="-95" type="line"/>
      <point x="80" y="-95" type="line"/>
      <point x="80" y="-60" type="line"/>
      <point x="140" y="-60" type="line"/>
      <point x="140" y="-50" type="line"/>
      <point x="70" y="-50" type="line"/>
    </contour>
    <contour>
      <point x="165" y="-150" type="line"/>
      <point x="175" y="-150" type="line"/>
      <point x="175" y="-110" type="line" name="hr121"/>
      <point x="240" y="-110" type="line"/>
      <point x="240" y="-150" type="line"/>
      <point x="250" y="-150" type="line"/>
      <point x="250" y="-100" type="line"/>
      <point x="175" y="-100" type="line"/>
      <point x="175" y="-60" type="line"/>
      <point x="210" y="-60" type="line" name="hr122"/>
      <point x="210" y="-100" type="line" name="hr123"/>
      <point x="220" y="-100" type="line"/>
      <point x="220" y="-50" type="line" name="hr124"/>
      <point x="165" y="-50" type="line"/>
    </contour>
    <contour>
      <point x="30" y="-150" type="line"/>
      <point x="45" y="-150" type="line"/>
      <point x="45" y="-135" type="line"/>
      <point x="30" y="-135" type="line"/>
    </contour>
    <contour>
      <point x="920" y="400" type="line"/>
      <point x="865" y="400" type="line"/>
      <point x="865" y="300" type="line"/>
      <point x="875" y="300" type="line"/>
      <point x="875" y="340" type="line"/>
      <point x="940" y="340" type="line" name="hr125"/>
      <point x="940" y="300" type="line"/>
      <point x="950" y="300" type="line"/>
      <point x="950" y="350" type="line"/>
      <point x="920" y="350" type="line"/>
    </contour>
  </outline>
</glyph>
<glyph name="dngb:asteriskballoonfour" format="2">
  <advance width="930"/>
  <outline>
    <contour>
      <point x="453" y="376" type="curve" smooth="yes"/>
      <point x="453" y="545"/>
      <point x="364" y="567"/>
      <point x="364" y="662" type="curve" smooth="yes"/>
      <point x="364" y="710"/>
      <point x="400" y="759"/>
      <point x="465" y="759" type="curve" smooth="yes"/>
      <point x="530" y="759"/>
      <point x="566" y="710"/>
      <point x="566" y="662" type="curve" smooth="yes"/>
      <point x="566" y="567"/>
      <point x="477" y="545"/>
      <point x="477" y="376" type="curve" smooth="yes"/>
      <point x="477" y="207"/>
      <point x="566" y="185"/>
      <point x="566" y="90" type="curve" smooth="yes"/>
      <point x="566" y="42"/>
      <point x="530" y="-7"/>
      <point x="465" y="-7" type="curve" smooth="yes"/>
      <point x="400" y="-7"/>
      <point x="364" y="42"/>
      <point x="364" y="90" type="curve" smooth="yes"/>
      <point x="364" y="185"/>
      <point x="453" y="207"/>
    </contour>
    <contour>
      <point x="465" y="364" type="curve" smooth="yes"/>
      <point x="296" y="364"/>
      <point x="274" y="275"/>
      <point x="179" y="275" type="curve" smooth="yes"/>
      <point x="131" y="275"/>
      <point x="82" y="311"/>
      <point x="82" y="376" type="curve" smooth="yes"/>
      <point x="82" y="441"/>
      <point x="131" y="477"/>
      <point x="179" y="477" type="curve" smooth="yes"/>
      <point x="274" y="477"/>
      <point x="296" y="388"/>
      <point x="465" y="388" type="curve" smooth="yes"/>
      <point x="634" y="388"/>
      <point x="656" y="477"/>
      <point x="751" y="477" type="curve" smooth="yes"/>
      <point x="799" y="477"/>
      <point x="848" y="441"/>
      <point x="848" y="376" type="curve" smooth="yes"/>
      <point x="848" y="311"/>
      <point x="799" y="275"/>
      <point x="751" y="275" type="curve" smooth="yes"/>
      <point x="656" y="275"/>
      <point x="634" y="364"/>
    </contour>
  </outline>
</glyph>
<glyph name="petitarc" format="2">
  <advance width="500"/>
  <outline>
    <contour>
      <point x="0" y="0" type="curve" name="hr00"/>
      <point x="17" y="0" type="line"/>
      <point x="20" y="42"/>
      <point x="57" y="55"/>
      <point x="103" y="55" type="curve" smooth="yes"/>
      <point x="141" y="55"/>
      <point x="184" y="42"/>
      <point x="187" y="0" type="curve"/>
      <point x="206" y="0" type="line"/>
      <point x="201" y="65"/>
      <point x="166" y="110"/>
      <point x="102" y="110" type="curve" smooth="yes"/>
      <point x="35" y="110"/>
      <point x="3" y="67"/>
    </contour>
  </outline>
</glyph>
